<mxfile host="app.diagrams.net" agent="Mozilla/5.0 (X11; Ubuntu; Linux x86_64; rv:141.0) Gecko/20100101 Firefox/141.0" version="28.1.0">
  <diagram name="Page-1" id="xIOkTCL3K24IWR9tix57">
    <mxGraphModel dx="666" dy="999" grid="1" gridSize="10" guides="1" tooltips="1" connect="1" arrows="1" fold="1" page="1" pageScale="1" pageWidth="827" pageHeight="1169" math="0" shadow="0">
      <root>
        <mxCell id="0" />
        <mxCell id="1" style="" parent="0" />
        <mxCell id="3SZMAM52sG9_Gdmyh299-129" value="" style="rounded=1;whiteSpace=wrap;html=1;shadow=0;treeFolding=0;treeMoving=0;fixDash=0;collapsible=0;recursiveResize=1;expand=1;backgroundOutline=0;movableLabel=0;autosize=0;fixedWidth=0;comic=0;strokeColor=default;fontColor=default;" parent="1" vertex="1">
          <mxGeometry x="240" y="470" width="500" height="630" as="geometry" />
        </mxCell>
        <mxCell id="3SZMAM52sG9_Gdmyh299-130" value="" style="rounded=1;whiteSpace=wrap;html=1;shadow=0;treeFolding=0;treeMoving=0;fixDash=0;collapsible=0;recursiveResize=1;expand=1;backgroundOutline=0;movableLabel=0;autosize=0;fixedWidth=0;comic=0;strokeColor=default;fontColor=default;" parent="1" vertex="1">
          <mxGeometry x="250" y="480" width="480" height="600" as="geometry" />
        </mxCell>
        <mxCell id="3SZMAM52sG9_Gdmyh299-131" value="" style="rounded=1;whiteSpace=wrap;html=1;shadow=0;glass=0;perimeterSpacing=1;strokeColor=default;fontColor=default;" parent="1" vertex="1">
          <mxGeometry x="310" y="490" width="412.5" height="570" as="geometry" />
        </mxCell>
        <mxCell id="3SZMAM52sG9_Gdmyh299-132" style="edgeStyle=orthogonalEdgeStyle;rounded=0;orthogonalLoop=1;jettySize=auto;html=1;exitX=0.55;exitY=0.95;exitDx=0;exitDy=0;exitPerimeter=0;entryX=0.5;entryY=0;entryDx=0;entryDy=0;shadow=0;strokeColor=default;fontColor=default;" parent="1" source="3SZMAM52sG9_Gdmyh299-133" target="3SZMAM52sG9_Gdmyh299-136" edge="1">
          <mxGeometry relative="1" as="geometry">
            <Array as="points">
              <mxPoint x="524" y="810" />
              <mxPoint x="390" y="810" />
            </Array>
          </mxGeometry>
        </mxCell>
        <mxCell id="3SZMAM52sG9_Gdmyh299-133" value="" style="ellipse;shape=cloud;whiteSpace=wrap;html=1;rotation=0;dashed=1;dashPattern=8 8;shadow=0;strokeColor=default;fontColor=default;" parent="1" vertex="1">
          <mxGeometry x="290" y="460" width="426.25" height="347.5" as="geometry" />
        </mxCell>
        <mxCell id="JFQzC-C9s6JUPjfdPCx0-2" style="edgeStyle=orthogonalEdgeStyle;rounded=0;orthogonalLoop=1;jettySize=auto;html=1;exitX=1;exitY=0.75;exitDx=0;exitDy=0;entryX=0;entryY=0.5;entryDx=0;entryDy=0;fontColor=default;strokeColor=default;shadow=0;" parent="1" source="3SZMAM52sG9_Gdmyh299-136" target="NnatkJBT9xsz4FV3scjZ-41" edge="1">
          <mxGeometry relative="1" as="geometry">
            <Array as="points">
              <mxPoint x="430" y="988" />
              <mxPoint x="514" y="988" />
            </Array>
          </mxGeometry>
        </mxCell>
        <mxCell id="JFQzC-C9s6JUPjfdPCx0-3" style="edgeStyle=orthogonalEdgeStyle;rounded=0;orthogonalLoop=1;jettySize=auto;html=1;exitX=0.997;exitY=0.147;exitDx=0;exitDy=0;entryX=0;entryY=0.5;entryDx=0;entryDy=0;startArrow=classic;startFill=1;exitPerimeter=0;shadow=0;strokeColor=default;fontColor=default;" parent="1" source="3SZMAM52sG9_Gdmyh299-136" target="3SZMAM52sG9_Gdmyh299-139" edge="1">
          <mxGeometry relative="1" as="geometry">
            <Array as="points" />
          </mxGeometry>
        </mxCell>
        <mxCell id="3SZMAM52sG9_Gdmyh299-136" value="Prometheus" style="html=1;whiteSpace=wrap;shadow=0;verticalAlign=top;strokeColor=default;fontColor=default;" parent="1" vertex="1">
          <mxGeometry x="350" y="840" width="80" height="170" as="geometry" />
        </mxCell>
        <mxCell id="3SZMAM52sG9_Gdmyh299-137" style="edgeStyle=orthogonalEdgeStyle;rounded=0;orthogonalLoop=1;jettySize=auto;html=1;exitX=1;exitY=0.25;exitDx=0;exitDy=0;entryX=0;entryY=0.75;entryDx=0;entryDy=0;shadow=0;strokeColor=default;fontColor=default;" parent="1" source="3SZMAM52sG9_Gdmyh299-139" target="3SZMAM52sG9_Gdmyh299-142" edge="1">
          <mxGeometry relative="1" as="geometry" />
        </mxCell>
        <mxCell id="NnatkJBT9xsz4FV3scjZ-47" style="edgeStyle=orthogonalEdgeStyle;rounded=0;orthogonalLoop=1;jettySize=auto;html=1;exitX=0.5;exitY=1;exitDx=0;exitDy=0;entryX=0.5;entryY=0;entryDx=0;entryDy=0;startArrow=classic;startFill=1;shadow=0;strokeColor=default;fontColor=default;" parent="1" source="3SZMAM52sG9_Gdmyh299-139" target="NnatkJBT9xsz4FV3scjZ-46" edge="1">
          <mxGeometry relative="1" as="geometry" />
        </mxCell>
        <mxCell id="3SZMAM52sG9_Gdmyh299-139" value="&lt;div&gt;Grafana&lt;/div&gt;" style="html=1;whiteSpace=wrap;shadow=0;strokeColor=default;fontColor=default;" parent="1" vertex="1">
          <mxGeometry x="463.13" y="840" width="80" height="50" as="geometry" />
        </mxCell>
        <mxCell id="3SZMAM52sG9_Gdmyh299-141" value="TSDB" style="shape=cylinder;whiteSpace=wrap;html=1;boundedLbl=1;backgroundOutline=1;shadow=0;strokeColor=default;fontColor=default;" parent="1" vertex="1">
          <mxGeometry x="360.63" y="902.5" width="58.75" height="65" as="geometry" />
        </mxCell>
        <mxCell id="3SZMAM52sG9_Gdmyh299-142" value="&lt;div&gt;Dashboard&lt;/div&gt;" style="shape=hexagon;perimeter=hexagonPerimeter2;whiteSpace=wrap;html=1;fixedSize=1;shadow=0;strokeColor=default;fontColor=default;" parent="1" vertex="1">
          <mxGeometry x="579" y="807.5" width="120" height="40" as="geometry" />
        </mxCell>
        <mxCell id="3SZMAM52sG9_Gdmyh299-144" value="&lt;div&gt;Alertas&lt;/div&gt;" style="shape=hexagon;perimeter=hexagonPerimeter2;whiteSpace=wrap;html=1;fixedSize=1;shadow=0;fontColor=default;strokeColor=default;" parent="1" vertex="1">
          <mxGeometry x="579" y="885" width="120" height="40" as="geometry" />
        </mxCell>
        <mxCell id="3SZMAM52sG9_Gdmyh299-145" value="&lt;div&gt;Hardware&lt;/div&gt;" style="text;html=1;align=center;verticalAlign=middle;resizable=0;points=[];autosize=1;strokeColor=none;fillColor=none;shadow=0;fontColor=default;" parent="1" vertex="1">
          <mxGeometry x="544" y="1080" width="80" height="30" as="geometry" />
        </mxCell>
        <mxCell id="3SZMAM52sG9_Gdmyh299-146" value="Host OS" style="text;html=1;align=center;verticalAlign=middle;resizable=0;points=[];autosize=1;strokeColor=none;fillColor=none;shadow=0;fontColor=default;" parent="1" vertex="1">
          <mxGeometry x="534" y="1060" width="70" height="30" as="geometry" />
        </mxCell>
        <mxCell id="3SZMAM52sG9_Gdmyh299-147" value="&lt;div&gt;&lt;b&gt;Visualização&lt;/b&gt;&lt;/div&gt;" style="html=1;dashed=0;whiteSpace=wrap;shape=mxgraph.dfd.start;shadow=0;strokeColor=default;fontColor=default;" parent="1" vertex="1">
          <mxGeometry x="780" y="812.5" width="110" height="30" as="geometry" />
        </mxCell>
        <mxCell id="3SZMAM52sG9_Gdmyh299-148" style="edgeStyle=orthogonalEdgeStyle;rounded=0;orthogonalLoop=1;jettySize=auto;html=1;exitX=1;exitY=0.5;exitDx=0;exitDy=0;entryX=0;entryY=0.5;entryDx=0;entryDy=0;entryPerimeter=0;shadow=0;strokeColor=default;fontColor=default;" parent="1" source="3SZMAM52sG9_Gdmyh299-142" target="3SZMAM52sG9_Gdmyh299-147" edge="1">
          <mxGeometry relative="1" as="geometry" />
        </mxCell>
        <mxCell id="3SZMAM52sG9_Gdmyh299-149" value="&lt;div&gt;Docker Engine&lt;/div&gt;" style="text;html=1;align=center;verticalAlign=middle;resizable=0;points=[];autosize=1;strokeColor=none;fillColor=none;shadow=0;fontColor=default;" parent="1" vertex="1">
          <mxGeometry x="524" y="1037" width="100" height="30" as="geometry" />
        </mxCell>
        <mxCell id="3SZMAM52sG9_Gdmyh299-151" value="&lt;b&gt;Notificações&lt;/b&gt;" style="rounded=1;whiteSpace=wrap;html=1;shadow=0;glass=0;perimeterSpacing=1;fontColor=default;strokeColor=default;verticalAlign=top;" parent="1" vertex="1">
          <mxGeometry x="780" y="873.75" width="110" height="150" as="geometry" />
        </mxCell>
        <mxCell id="3SZMAM52sG9_Gdmyh299-152" value="Email" style="html=1;dashed=0;whiteSpace=wrap;shape=mxgraph.dfd.start;shadow=0;fontColor=default;strokeColor=default;" parent="1" vertex="1">
          <mxGeometry x="795" y="903.75" width="80" height="30" as="geometry" />
        </mxCell>
        <mxCell id="3SZMAM52sG9_Gdmyh299-153" value="&lt;div&gt;Aplicativos Terceiros&lt;/div&gt;" style="html=1;dashed=0;whiteSpace=wrap;shape=mxgraph.dfd.start;shadow=0;fontColor=default;strokeColor=default;" parent="1" vertex="1">
          <mxGeometry x="795" y="943.75" width="80" height="30" as="geometry" />
        </mxCell>
        <mxCell id="3SZMAM52sG9_Gdmyh299-154" value="&lt;div&gt;etc.&lt;/div&gt;" style="html=1;dashed=0;whiteSpace=wrap;shape=mxgraph.dfd.start;shadow=0;fontColor=default;strokeColor=default;" parent="1" vertex="1">
          <mxGeometry x="795" y="983.75" width="80" height="30" as="geometry" />
        </mxCell>
        <mxCell id="NnatkJBT9xsz4FV3scjZ-24" style="edgeStyle=orthogonalEdgeStyle;rounded=0;orthogonalLoop=1;jettySize=auto;html=1;exitX=0.5;exitY=1;exitDx=0;exitDy=0;entryX=0.5;entryY=0;entryDx=0;entryDy=0;shadow=0;strokeColor=default;fontColor=default;" parent="1" source="3SZMAM52sG9_Gdmyh299-159" target="NnatkJBT9xsz4FV3scjZ-18" edge="1">
          <mxGeometry relative="1" as="geometry" />
        </mxCell>
        <mxCell id="NnatkJBT9xsz4FV3scjZ-54" style="rounded=0;orthogonalLoop=1;jettySize=auto;html=1;exitX=1;exitY=0;exitDx=0;exitDy=0;entryX=0;entryY=1;entryDx=0;entryDy=0;dashed=1;dashPattern=8 8;shadow=0;strokeColor=default;fontColor=default;" parent="1" source="3SZMAM52sG9_Gdmyh299-159" target="NnatkJBT9xsz4FV3scjZ-49" edge="1">
          <mxGeometry relative="1" as="geometry" />
        </mxCell>
        <mxCell id="3SZMAM52sG9_Gdmyh299-159" value="&lt;font style=&quot;font-size: 11px;&quot;&gt;Dispositivo Virtual 1&lt;/font&gt;" style="rhombus;whiteSpace=wrap;html=1;shadow=0;strokeColor=default;fontColor=default;" parent="1" vertex="1">
          <mxGeometry x="326" y="573.89" width="87.5" height="72.22" as="geometry" />
        </mxCell>
        <mxCell id="NnatkJBT9xsz4FV3scjZ-40" style="edgeStyle=orthogonalEdgeStyle;rounded=0;orthogonalLoop=1;jettySize=auto;html=1;exitX=0.5;exitY=1;exitDx=0;exitDy=0;entryX=0;entryY=0.5;entryDx=0;entryDy=0;shadow=0;strokeColor=default;fontColor=default;" parent="1" source="NnatkJBT9xsz4FV3scjZ-1" target="3SZMAM52sG9_Gdmyh299-136" edge="1">
          <mxGeometry relative="1" as="geometry" />
        </mxCell>
        <mxCell id="NnatkJBT9xsz4FV3scjZ-1" value="Telegraf" style="ellipse;whiteSpace=wrap;html=1;aspect=fixed;shadow=0;fontSize=10;strokeColor=default;fontColor=default;" parent="1" vertex="1">
          <mxGeometry x="259" y="780" width="40" height="40" as="geometry" />
        </mxCell>
        <mxCell id="NnatkJBT9xsz4FV3scjZ-25" style="edgeStyle=orthogonalEdgeStyle;rounded=0;orthogonalLoop=1;jettySize=auto;html=1;exitX=0.5;exitY=1;exitDx=0;exitDy=0;entryX=0.5;entryY=0;entryDx=0;entryDy=0;shadow=0;strokeColor=default;fontColor=default;" parent="1" source="NnatkJBT9xsz4FV3scjZ-2" target="NnatkJBT9xsz4FV3scjZ-20" edge="1">
          <mxGeometry relative="1" as="geometry" />
        </mxCell>
        <mxCell id="NnatkJBT9xsz4FV3scjZ-55" style="edgeStyle=orthogonalEdgeStyle;rounded=0;orthogonalLoop=1;jettySize=auto;html=1;exitX=1;exitY=0;exitDx=0;exitDy=0;entryX=0.5;entryY=1;entryDx=0;entryDy=0;dashed=1;dashPattern=8 8;shadow=0;strokeColor=default;fontColor=default;" parent="1" source="NnatkJBT9xsz4FV3scjZ-2" target="NnatkJBT9xsz4FV3scjZ-50" edge="1">
          <mxGeometry relative="1" as="geometry" />
        </mxCell>
        <mxCell id="NnatkJBT9xsz4FV3scjZ-2" value="&lt;font style=&quot;font-size: 11px;&quot;&gt;Dispositivo Virtual 2&lt;/font&gt;" style="rhombus;whiteSpace=wrap;html=1;shadow=0;strokeColor=default;fontColor=default;" parent="1" vertex="1">
          <mxGeometry x="395" y="610" width="87.5" height="72.22" as="geometry" />
        </mxCell>
        <mxCell id="NnatkJBT9xsz4FV3scjZ-63" style="edgeStyle=orthogonalEdgeStyle;rounded=0;orthogonalLoop=1;jettySize=auto;html=1;exitX=0.5;exitY=0;exitDx=0;exitDy=0;entryX=0.5;entryY=1;entryDx=0;entryDy=0;dashed=1;dashPattern=8 8;shadow=0;strokeColor=default;fontColor=default;" parent="1" source="NnatkJBT9xsz4FV3scjZ-3" target="NnatkJBT9xsz4FV3scjZ-51" edge="1">
          <mxGeometry relative="1" as="geometry" />
        </mxCell>
        <mxCell id="NnatkJBT9xsz4FV3scjZ-65" style="edgeStyle=orthogonalEdgeStyle;rounded=0;orthogonalLoop=1;jettySize=auto;html=1;exitX=0.5;exitY=1;exitDx=0;exitDy=0;entryX=0.5;entryY=0;entryDx=0;entryDy=0;shadow=0;strokeColor=default;fontColor=default;" parent="1" edge="1">
          <mxGeometry relative="1" as="geometry">
            <mxPoint x="508" y="712.22" as="sourcePoint" />
            <mxPoint x="508.99" y="738.75" as="targetPoint" />
          </mxGeometry>
        </mxCell>
        <mxCell id="NnatkJBT9xsz4FV3scjZ-3" value="&lt;font style=&quot;font-size: 11px;&quot;&gt;Dispositivo Virtual 3&lt;/font&gt;" style="rhombus;whiteSpace=wrap;html=1;shadow=0;strokeColor=default;fontColor=default;" parent="1" vertex="1">
          <mxGeometry x="465.25" y="640" width="87.5" height="72.22" as="geometry" />
        </mxCell>
        <mxCell id="NnatkJBT9xsz4FV3scjZ-29" style="edgeStyle=orthogonalEdgeStyle;rounded=0;orthogonalLoop=1;jettySize=auto;html=1;exitX=0.5;exitY=1;exitDx=0;exitDy=0;entryX=0.5;entryY=0;entryDx=0;entryDy=0;shadow=0;strokeColor=default;fontColor=default;" parent="1" source="NnatkJBT9xsz4FV3scjZ-4" target="NnatkJBT9xsz4FV3scjZ-19" edge="1">
          <mxGeometry relative="1" as="geometry" />
        </mxCell>
        <mxCell id="NnatkJBT9xsz4FV3scjZ-58" style="rounded=0;orthogonalLoop=1;jettySize=auto;html=1;exitX=0;exitY=0;exitDx=0;exitDy=0;entryX=1;entryY=1;entryDx=0;entryDy=0;dashed=1;dashPattern=8 8;shadow=0;strokeColor=default;fontColor=default;" parent="1" source="NnatkJBT9xsz4FV3scjZ-4" target="NnatkJBT9xsz4FV3scjZ-53" edge="1">
          <mxGeometry relative="1" as="geometry" />
        </mxCell>
        <mxCell id="NnatkJBT9xsz4FV3scjZ-4" value="&lt;font style=&quot;font-size: 11px;&quot;&gt;Dispositivo Virtual 5&lt;/font&gt;" style="rhombus;whiteSpace=wrap;html=1;shadow=0;strokeColor=default;fontColor=default;" parent="1" vertex="1">
          <mxGeometry x="590" y="567.78" width="87.5" height="72.22" as="geometry" />
        </mxCell>
        <mxCell id="NnatkJBT9xsz4FV3scjZ-28" style="edgeStyle=orthogonalEdgeStyle;rounded=0;orthogonalLoop=1;jettySize=auto;html=1;exitX=0.5;exitY=1;exitDx=0;exitDy=0;entryX=0.5;entryY=0;entryDx=0;entryDy=0;shadow=0;strokeColor=default;fontColor=default;" parent="1" source="NnatkJBT9xsz4FV3scjZ-5" target="NnatkJBT9xsz4FV3scjZ-21" edge="1">
          <mxGeometry relative="1" as="geometry" />
        </mxCell>
        <mxCell id="NnatkJBT9xsz4FV3scjZ-57" style="edgeStyle=orthogonalEdgeStyle;rounded=0;orthogonalLoop=1;jettySize=auto;html=1;exitX=0;exitY=0;exitDx=0;exitDy=0;entryX=0.5;entryY=1;entryDx=0;entryDy=0;dashed=1;dashPattern=8 8;shadow=0;strokeColor=default;fontColor=default;" parent="1" source="NnatkJBT9xsz4FV3scjZ-5" target="NnatkJBT9xsz4FV3scjZ-52" edge="1">
          <mxGeometry relative="1" as="geometry" />
        </mxCell>
        <mxCell id="NnatkJBT9xsz4FV3scjZ-5" value="&lt;div&gt;&lt;font style=&quot;font-size: 11px;&quot;&gt;Dispositivo Virtual 4&lt;/font&gt;&lt;/div&gt;" style="rhombus;whiteSpace=wrap;html=1;shadow=0;strokeColor=default;fontColor=default;" parent="1" vertex="1">
          <mxGeometry x="536.5" y="610" width="87.5" height="72.22" as="geometry" />
        </mxCell>
        <mxCell id="NnatkJBT9xsz4FV3scjZ-14" value="Iperf3" style="rhombus;whiteSpace=wrap;html=1;shadow=0;strokeColor=default;fontColor=default;" parent="1" vertex="1">
          <mxGeometry x="465.25" y="502" width="73.75" height="60" as="geometry" />
        </mxCell>
        <mxCell id="NnatkJBT9xsz4FV3scjZ-17" value="Telegraf" style="ellipse;whiteSpace=wrap;html=1;aspect=fixed;shadow=0;fontSize=10;strokeColor=default;fontColor=default;" parent="1" vertex="1">
          <mxGeometry x="489.99" y="738.75" width="40" height="40" as="geometry" />
        </mxCell>
        <mxCell id="NnatkJBT9xsz4FV3scjZ-18" value="Telegraf" style="ellipse;whiteSpace=wrap;html=1;aspect=fixed;shadow=0;fontSize=10;strokeColor=default;fontColor=default;" parent="1" vertex="1">
          <mxGeometry x="350" y="672.22" width="40" height="40" as="geometry" />
        </mxCell>
        <mxCell id="NnatkJBT9xsz4FV3scjZ-19" value="Telegraf" style="ellipse;whiteSpace=wrap;html=1;aspect=fixed;shadow=0;fontSize=10;strokeColor=default;fontColor=default;" parent="1" vertex="1">
          <mxGeometry x="613.75" y="678.33" width="40" height="40" as="geometry" />
        </mxCell>
        <mxCell id="NnatkJBT9xsz4FV3scjZ-20" value="Telegraf" style="ellipse;whiteSpace=wrap;html=1;aspect=fixed;shadow=0;fontSize=10;strokeColor=default;fontColor=default;" parent="1" vertex="1">
          <mxGeometry x="418.75" y="698.75" width="40" height="40" as="geometry" />
        </mxCell>
        <mxCell id="NnatkJBT9xsz4FV3scjZ-21" value="Telegraf" style="ellipse;whiteSpace=wrap;html=1;aspect=fixed;shadow=0;fontSize=10;strokeColor=default;fontColor=default;" parent="1" vertex="1">
          <mxGeometry x="560.25" y="718.33" width="40" height="40" as="geometry" />
        </mxCell>
        <mxCell id="NnatkJBT9xsz4FV3scjZ-31" style="edgeStyle=orthogonalEdgeStyle;rounded=0;orthogonalLoop=1;jettySize=auto;html=1;exitX=0.5;exitY=1;exitDx=0;exitDy=0;entryX=0.19;entryY=0.809;entryDx=0;entryDy=0;entryPerimeter=0;shadow=0;strokeColor=default;fontColor=default;" parent="1" source="NnatkJBT9xsz4FV3scjZ-18" target="3SZMAM52sG9_Gdmyh299-133" edge="1">
          <mxGeometry relative="1" as="geometry" />
        </mxCell>
        <mxCell id="NnatkJBT9xsz4FV3scjZ-33" style="edgeStyle=orthogonalEdgeStyle;rounded=0;orthogonalLoop=1;jettySize=auto;html=1;exitX=0.5;exitY=1;exitDx=0;exitDy=0;entryX=0.352;entryY=0.86;entryDx=0;entryDy=0;entryPerimeter=0;shadow=0;strokeColor=default;fontColor=default;" parent="1" source="NnatkJBT9xsz4FV3scjZ-20" target="3SZMAM52sG9_Gdmyh299-133" edge="1">
          <mxGeometry relative="1" as="geometry" />
        </mxCell>
        <mxCell id="NnatkJBT9xsz4FV3scjZ-35" style="edgeStyle=orthogonalEdgeStyle;rounded=0;orthogonalLoop=1;jettySize=auto;html=1;exitX=0.5;exitY=1;exitDx=0;exitDy=0;entryX=0.68;entryY=0.918;entryDx=0;entryDy=0;entryPerimeter=0;shadow=0;strokeColor=default;fontColor=default;" parent="1" source="NnatkJBT9xsz4FV3scjZ-21" target="3SZMAM52sG9_Gdmyh299-133" edge="1">
          <mxGeometry relative="1" as="geometry" />
        </mxCell>
        <mxCell id="NnatkJBT9xsz4FV3scjZ-37" style="edgeStyle=orthogonalEdgeStyle;rounded=0;orthogonalLoop=1;jettySize=auto;html=1;exitX=0.5;exitY=1;exitDx=0;exitDy=0;entryX=0.516;entryY=0.953;entryDx=0;entryDy=0;entryPerimeter=0;shadow=0;strokeColor=default;fontColor=default;" parent="1" source="NnatkJBT9xsz4FV3scjZ-17" target="3SZMAM52sG9_Gdmyh299-133" edge="1">
          <mxGeometry relative="1" as="geometry" />
        </mxCell>
        <mxCell id="NnatkJBT9xsz4FV3scjZ-39" style="edgeStyle=orthogonalEdgeStyle;rounded=0;orthogonalLoop=1;jettySize=auto;html=1;exitX=0.5;exitY=1;exitDx=0;exitDy=0;entryX=0.8;entryY=0.8;entryDx=0;entryDy=0;entryPerimeter=0;shadow=0;strokeColor=default;fontColor=default;" parent="1" source="NnatkJBT9xsz4FV3scjZ-19" target="3SZMAM52sG9_Gdmyh299-133" edge="1">
          <mxGeometry relative="1" as="geometry" />
        </mxCell>
        <mxCell id="NnatkJBT9xsz4FV3scjZ-45" style="edgeStyle=orthogonalEdgeStyle;rounded=0;orthogonalLoop=1;jettySize=auto;html=1;exitX=0.5;exitY=0;exitDx=0;exitDy=0;entryX=0.5;entryY=1;entryDx=0;entryDy=0;fontColor=default;strokeColor=default;shadow=0;" parent="1" source="NnatkJBT9xsz4FV3scjZ-41" target="3SZMAM52sG9_Gdmyh299-144" edge="1">
          <mxGeometry relative="1" as="geometry" />
        </mxCell>
        <mxCell id="NnatkJBT9xsz4FV3scjZ-41" value="Alertmanager" style="html=1;whiteSpace=wrap;shadow=0;fontColor=default;strokeColor=default;" parent="1" vertex="1">
          <mxGeometry x="597.5" y="962.5" width="80" height="50" as="geometry" />
        </mxCell>
        <mxCell id="NnatkJBT9xsz4FV3scjZ-46" value="SQLite" style="shape=cylinder;whiteSpace=wrap;html=1;boundedLbl=1;backgroundOutline=1;shadow=0;strokeColor=default;fontColor=default;" parent="1" vertex="1">
          <mxGeometry x="478.63" y="918.75" width="49" height="55" as="geometry" />
        </mxCell>
        <mxCell id="NnatkJBT9xsz4FV3scjZ-66" style="rounded=0;orthogonalLoop=1;jettySize=auto;html=1;exitX=1;exitY=0;exitDx=0;exitDy=0;entryX=0;entryY=0.5;entryDx=0;entryDy=0;flowAnimation=0;curved=0;dashed=1;startArrow=classic;startFill=1;dashPattern=8 8;shadow=0;strokeColor=default;fontColor=default;" parent="1" source="NnatkJBT9xsz4FV3scjZ-49" target="NnatkJBT9xsz4FV3scjZ-14" edge="1">
          <mxGeometry relative="1" as="geometry" />
        </mxCell>
        <mxCell id="NnatkJBT9xsz4FV3scjZ-49" value="Iperf3" style="ellipse;whiteSpace=wrap;html=1;aspect=fixed;shadow=0;fontSize=10;strokeColor=default;fontColor=default;" parent="1" vertex="1">
          <mxGeometry x="400" y="554" width="30" height="30" as="geometry" />
        </mxCell>
        <mxCell id="NnatkJBT9xsz4FV3scjZ-67" style="rounded=0;orthogonalLoop=1;jettySize=auto;html=1;exitX=1;exitY=0;exitDx=0;exitDy=0;entryX=0;entryY=1;entryDx=0;entryDy=0;flowAnimation=0;curved=0;dashed=1;startArrow=classic;startFill=1;dashPattern=8 8;shadow=0;strokeColor=default;fontColor=default;" parent="1" source="NnatkJBT9xsz4FV3scjZ-50" target="NnatkJBT9xsz4FV3scjZ-14" edge="1">
          <mxGeometry relative="1" as="geometry" />
        </mxCell>
        <mxCell id="NnatkJBT9xsz4FV3scjZ-50" value="Iperf3" style="ellipse;whiteSpace=wrap;html=1;aspect=fixed;shadow=0;fontSize=10;strokeColor=default;fontColor=default;" parent="1" vertex="1">
          <mxGeometry x="443.12" y="572.89" width="30" height="30" as="geometry" />
        </mxCell>
        <mxCell id="NnatkJBT9xsz4FV3scjZ-68" style="rounded=0;orthogonalLoop=1;jettySize=auto;html=1;exitX=0.5;exitY=0;exitDx=0;exitDy=0;entryX=0.5;entryY=1;entryDx=0;entryDy=0;flowAnimation=0;curved=0;dashed=1;startArrow=classic;startFill=1;dashPattern=8 8;shadow=0;strokeColor=default;fontColor=default;" parent="1" source="NnatkJBT9xsz4FV3scjZ-51" target="NnatkJBT9xsz4FV3scjZ-14" edge="1">
          <mxGeometry relative="1" as="geometry" />
        </mxCell>
        <mxCell id="NnatkJBT9xsz4FV3scjZ-51" value="Iperf3" style="ellipse;whiteSpace=wrap;html=1;aspect=fixed;shadow=0;fontSize=10;strokeColor=default;fontColor=default;" parent="1" vertex="1">
          <mxGeometry x="494" y="587.89" width="30" height="30" as="geometry" />
        </mxCell>
        <mxCell id="NnatkJBT9xsz4FV3scjZ-69" style="rounded=0;orthogonalLoop=1;jettySize=auto;html=1;exitX=0;exitY=0;exitDx=0;exitDy=0;entryX=1;entryY=1;entryDx=0;entryDy=0;flowAnimation=0;curved=0;dashed=1;startArrow=classic;startFill=1;dashPattern=8 8;shadow=0;strokeColor=default;fontColor=default;" parent="1" source="NnatkJBT9xsz4FV3scjZ-52" target="NnatkJBT9xsz4FV3scjZ-14" edge="1">
          <mxGeometry relative="1" as="geometry" />
        </mxCell>
        <mxCell id="NnatkJBT9xsz4FV3scjZ-52" value="Iperf3" style="ellipse;whiteSpace=wrap;html=1;aspect=fixed;shadow=0;fontSize=10;strokeColor=default;fontColor=default;" parent="1" vertex="1">
          <mxGeometry x="543.13" y="579" width="30" height="30" as="geometry" />
        </mxCell>
        <mxCell id="NnatkJBT9xsz4FV3scjZ-70" style="rounded=0;orthogonalLoop=1;jettySize=auto;html=1;exitX=0;exitY=0;exitDx=0;exitDy=0;entryX=1;entryY=0.5;entryDx=0;entryDy=0;flowAnimation=0;curved=0;dashed=1;startArrow=classic;startFill=1;dashPattern=8 8;shadow=0;strokeColor=default;fontColor=default;" parent="1" source="NnatkJBT9xsz4FV3scjZ-53" target="NnatkJBT9xsz4FV3scjZ-14" edge="1">
          <mxGeometry relative="1" as="geometry" />
        </mxCell>
        <mxCell id="NnatkJBT9xsz4FV3scjZ-53" value="Iperf3" style="ellipse;whiteSpace=wrap;html=1;aspect=fixed;shadow=0;fontSize=10;strokeColor=default;fontColor=default;" parent="1" vertex="1">
          <mxGeometry x="573.13" y="542.89" width="30" height="30" as="geometry" />
        </mxCell>
        <mxCell id="7DoHHPpg7aaA5cZfHPbh-3" style="edgeStyle=orthogonalEdgeStyle;rounded=0;orthogonalLoop=1;jettySize=auto;html=1;exitX=1;exitY=0.5;exitDx=0;exitDy=0;entryX=0.002;entryY=0.213;entryDx=0;entryDy=0;entryPerimeter=0;fontColor=default;strokeColor=default;shadow=0;" parent="1" source="3SZMAM52sG9_Gdmyh299-144" target="3SZMAM52sG9_Gdmyh299-151" edge="1">
          <mxGeometry relative="1" as="geometry" />
        </mxCell>
        <mxCell id="Kzo5I-FJj0xecOTcukf--1" value="" style="shape=image;verticalLabelPosition=bottom;labelBackgroundColor=default;verticalAlign=top;aspect=fixed;imageAspect=0;image=data:image/png,iVBORw0KGgoAAAANSUhEUgAAAgAAAAIACAYAAAD0eNT6AAAABGdBTUEAALGPC/xhBQAACklpQ0NQc1JHQiBJRUM2MTk2Ni0yLjEAAEiJnVN3WJP3Fj7f92UPVkLY8LGXbIEAIiOsCMgQWaIQkgBhhBASQMWFiApWFBURnEhVxILVCkidiOKgKLhnQYqIWotVXDjuH9yntX167+3t+9f7vOec5/zOec8PgBESJpHmomoAOVKFPDrYH49PSMTJvYACFUjgBCAQ5svCZwXFAADwA3l4fnSwP/wBr28AAgBw1S4kEsfh/4O6UCZXACCRAOAiEucLAZBSAMguVMgUAMgYALBTs2QKAJQAAGx5fEIiAKoNAOz0ST4FANipk9wXANiiHKkIAI0BAJkoRyQCQLsAYFWBUiwCwMIAoKxAIi4EwK4BgFm2MkcCgL0FAHaOWJAPQGAAgJlCLMwAIDgCAEMeE80DIEwDoDDSv+CpX3CFuEgBAMDLlc2XS9IzFLiV0Bp38vDg4iHiwmyxQmEXKRBmCeQinJebIxNI5wNMzgwAABr50cH+OD+Q5+bk4eZm52zv9MWi/mvwbyI+IfHf/ryMAgQAEE7P79pf5eXWA3DHAbB1v2upWwDaVgBo3/ldM9sJoFoK0Hr5i3k4/EAenqFQyDwdHAoLC+0lYqG9MOOLPv8z4W/gi372/EAe/tt68ABxmkCZrcCjg/1xYW52rlKO58sEQjFu9+cj/seFf/2OKdHiNLFcLBWK8ViJuFAiTcd5uVKRRCHJleIS6X8y8R+W/QmTdw0ArIZPwE62B7XLbMB+7gECiw5Y0nYAQH7zLYwaC5EAEGc0Mnn3AACTv/mPQCsBAM2XpOMAALzoGFyolBdMxggAAESggSqwQQcMwRSswA6cwR28wBcCYQZEQAwkwDwQQgbkgBwKoRiWQRlUwDrYBLWwAxqgEZrhELTBMTgN5+ASXIHrcBcGYBiewhi8hgkEQcgIE2EhOogRYo7YIs4IF5mOBCJhSDSSgKQg6YgUUSLFyHKkAqlCapFdSCPyLXIUOY1cQPqQ28ggMor8irxHMZSBslED1AJ1QLmoHxqKxqBz0XQ0D12AlqJr0Rq0Hj2AtqKn0UvodXQAfYqOY4DRMQ5mjNlhXIyHRWCJWBomxxZj5Vg1Vo81Yx1YN3YVG8CeYe8IJAKLgBPsCF6EEMJsgpCQR1hMWEOoJewjtBK6CFcJg4Qxwicik6hPtCV6EvnEeGI6sZBYRqwm7iEeIZ4lXicOE1+TSCQOyZLkTgohJZAySQtJa0jbSC2kU6Q+0hBpnEwm65Btyd7kCLKArCCXkbeQD5BPkvvJw+S3FDrFiOJMCaIkUqSUEko1ZT/lBKWfMkKZoKpRzame1AiqiDqfWkltoHZQL1OHqRM0dZolzZsWQ8ukLaPV0JppZ2n3aC/pdLoJ3YMeRZfQl9Jr6Afp5+mD9HcMDYYNg8dIYigZaxl7GacYtxkvmUymBdOXmchUMNcyG5lnmA+Yb1VYKvYqfBWRyhKVOpVWlX6V56pUVXNVP9V5qgtUq1UPq15WfaZGVbNQ46kJ1Bar1akdVbupNq7OUndSj1DPUV+jvl/9gvpjDbKGhUaghkijVGO3xhmNIRbGMmXxWELWclYD6yxrmE1iW7L57Ex2Bfsbdi97TFNDc6pmrGaRZp3mcc0BDsax4PA52ZxKziHODc57LQMtPy2x1mqtZq1+rTfaetq+2mLtcu0W7eva73VwnUCdLJ31Om0693UJuja6UbqFutt1z+o+02PreekJ9cr1Dund0Uf1bfSj9Rfq79bv0R83MDQINpAZbDE4Y/DMkGPoa5hpuNHwhOGoEctoupHEaKPRSaMnuCbuh2fjNXgXPmasbxxirDTeZdxrPGFiaTLbpMSkxeS+Kc2Ua5pmutG003TMzMgs3KzYrMnsjjnVnGueYb7ZvNv8jYWlRZzFSos2i8eW2pZ8ywWWTZb3rJhWPlZ5VvVW16xJ1lzrLOtt1ldsUBtXmwybOpvLtqitm63Edptt3xTiFI8p0in1U27aMez87ArsmuwG7Tn2YfYl9m32zx3MHBId1jt0O3xydHXMdmxwvOuk4TTDqcSpw+lXZxtnoXOd8zUXpkuQyxKXdpcXU22niqdun3rLleUa7rrStdP1o5u7m9yt2W3U3cw9xX2r+00umxvJXcM970H08PdY4nHM452nm6fC85DnL152Xlle+70eT7OcJp7WMG3I28Rb4L3Le2A6Pj1l+s7pAz7GPgKfep+Hvqa+It89viN+1n6Zfgf8nvs7+sv9j/i/4XnyFvFOBWABwQHlAb2BGoGzA2sDHwSZBKUHNQWNBbsGLww+FUIMCQ1ZH3KTb8AX8hv5YzPcZyya0RXKCJ0VWhv6MMwmTB7WEY6GzwjfEH5vpvlM6cy2CIjgR2yIuB9pGZkX+X0UKSoyqi7qUbRTdHF09yzWrORZ+2e9jvGPqYy5O9tqtnJ2Z6xqbFJsY+ybuIC4qriBeIf4RfGXEnQTJAntieTE2MQ9ieNzAudsmjOc5JpUlnRjruXcorkX5unOy553PFk1WZB8OIWYEpeyP+WDIEJQLxhP5aduTR0T8oSbhU9FvqKNolGxt7hKPJLmnVaV9jjdO31D+miGT0Z1xjMJT1IreZEZkrkj801WRNberM/ZcdktOZSclJyjUg1plrQr1zC3KLdPZisrkw3keeZtyhuTh8r35CP5c/PbFWyFTNGjtFKuUA4WTC+oK3hbGFt4uEi9SFrUM99m/ur5IwuCFny9kLBQuLCz2Lh4WfHgIr9FuxYji1MXdy4xXVK6ZHhp8NJ9y2jLspb9UOJYUlXyannc8o5Sg9KlpUMrglc0lamUycturvRauWMVYZVkVe9ql9VbVn8qF5VfrHCsqK74sEa45uJXTl/VfPV5bdra3kq3yu3rSOuk626s91m/r0q9akHV0IbwDa0b8Y3lG19tSt50oXpq9Y7NtM3KzQM1YTXtW8y2rNvyoTaj9nqdf13LVv2tq7e+2Sba1r/dd3vzDoMdFTve75TsvLUreFdrvUV99W7S7oLdjxpiG7q/5n7duEd3T8Wej3ulewf2Re/ranRvbNyvv7+yCW1SNo0eSDpw5ZuAb9qb7Zp3tXBaKg7CQeXBJ9+mfHvjUOihzsPcw83fmX+39QjrSHkr0jq/dawto22gPaG97+iMo50dXh1Hvrf/fu8x42N1xzWPV56gnSg98fnkgpPjp2Snnp1OPz3Umdx590z8mWtdUV29Z0PPnj8XdO5Mt1/3yfPe549d8Lxw9CL3Ytslt0utPa49R35w/eFIr1tv62X3y+1XPK509E3rO9Hv03/6asDVc9f41y5dn3m978bsG7duJt0cuCW69fh29u0XdwruTNxdeo94r/y+2v3qB/oP6n+0/rFlwG3g+GDAYM/DWQ/vDgmHnv6U/9OH4dJHzEfVI0YjjY+dHx8bDRq98mTOk+GnsqcTz8p+Vv9563Or59/94vtLz1j82PAL+YvPv655qfNy76uprzrHI8cfvM55PfGm/K3O233vuO+638e9H5ko/ED+UPPR+mPHp9BP9z7nfP78L/eE8/stRzjPAAAAIGNIUk0AAHomAACAhAAA+gAAAIDoAAB1MAAA6mAAADqYAAAXcJy6UTwAAAAJcEhZcwAADsQAAA7EAZUrDhsAABHdSURBVHic7d1bjG5nXcfx38BubXqEthRPqWjT0nhAvUBKrcSiiFqvlHpIlRo8JDZGLdG0JBoW4cIaLzQxxkNESkUTwUtETaMkIsGg5UYqAm1Qi7tpxY2lB6pGXi/WtO5uZs+8M7Oedfp/PsmkyZ7d53l69f92Hd53Z7PZBACo5XlTHwAAGJ8AAICCBAAAFCQAAKAgAQAABQkAAChIAABAQQIAAAoSAABQkAAAgIIEAAAUJAAAoCABAAAFCQAAKEgAAEBBAgAAChIAAFCQAACAggQAABQkAACgIAEAAAUJAAAoSAAAQEECAAAKEgAAUJAAAICCBAAAFCQAAKAgAQAABQkAAChIAABAQQIAAAoSAABQkAAAgIIEAAAUJAAAoCABAAAFCQAAKEgAAEBBAgAAChIAAFCQAACAggQAABQkAACgIAEAAAUJAAAoSAAAQEECAAAKEgAAUJAAAICCBAAAFCQAAKAgAQAABQkAAChIAABAQQIAAAoSAABQkAAAgIIEAAAUJAAAoCABAAAFCQAAKEgAAEBBJ1osurOz02LZo3pRkpcmuTbJNUkuSfLCJBcmuWD3B4B6ntz9eSLJfyZ5LMnHd38+muTRyU52hs1mM/iaTQJgYl+d5NVJbkzyqiSXT3scABbqVJL3J/mr3Z/7kww/iSey06IqJrgC8PVJbk3yA0m+dOzNASjhkSR/nOQPkvz9mBs3mdULDoALk/xYkjckedkYGwLAro8meUeS30l/+6ApAdC7KMltSX4hyWUtNwKAAzye5O1J7krycKtNqgfAeUnuSPLGJBe32AAAjuipJL+R5K3pHywcVOUAeHWS30z/JD8AzNXJJG9Kcs+Qi1YMgMuT/HaS7xtqQQAYwZ+nf07t5BCLVQuAb0r/tOVLhlgMAEb26fRvqL33uAu1mNVz/CTA56W/fPKBGP4ALNflSd6T5Jczw8/dmdsVgHPTv1bxg8OdBgAmd2+S703/qYOHtvZbABck+ZMk3znsaQBgFj6U5Kb0twYOZc0BcFmSP0vy8sEPAwDz8Y9JXpNDPhy41gA4P/2lkesHPwgAzM/96b+r5tS2/8IaHwI8J/1lf8MfgCq+Jv2bAZN+G+2UAbCT/uMTv2vCMwDAFF6R/lX35091gCkD4PYkt0y4PwBM6aYkvzTV5lM9A/DyJH+T/rU/AKjq8+nffrt3v7+0locAX5Dkw0m+cvCNAWB5Hk3yDdnn2wTX8hDgr8fwB4BnXJH+mwRHNfYVgBuS/HX6BwABgP/3PUn+dK9fLP0WwIkk9yV52eAbAsDyPZjka5M8feYvln4L4Gdj+APA2VyV5OfH2mysKwDnJ/lk+vscAMDeTqX/JtzHT//DJV8B+IkY/gBwkEuT3DbGRmNcATgnyQNJrhx8IwBYn0fTvy331DN/sNQrAD8Uwx8AtnVFRvik3DEC4EdH2AMA1uT1rTdofQvgyvQP/039rYMAsCSbJFenfzVwkbcAfmSEPQBgbXaS/HDLDVoP55sbrw8Aa/W6lou3vAVwWfonGV0BAIDD2yT5kiSPLO0WwLc1Xh8A1mwnybe2WrzlgL6x4doAUEGzWdoyAG5ouDYAVPDNrRZu9QzA85M8keS8wRcHgDr+O8n5m83mf4deuNUVgJfE8AeA4zo3yVe0WLhVAFzbaF0AqOalLRZtFQBXNVoXAKq5usWirQLg0kbrAkA1l7RYtFUAXNhoXQCo5qIWi7YKgCaHBYCCLm6x6IkWi2ZZVwDunPoAAEzirqkPsKUm/1PdKgDOabRuC78y9QEAmMRSAqDJTPVZ/QBQkAAAgIIEAAAUJAAAoCABAAAFCQAAKEgAAEBBAgAAChIAAFCQAACAggQAABQkAACgIAEAAAUJAAAoSAAAQEECAAAKEgAAUJAAAICCBAAAFCQAAKAgAQAABQkAAChIAABAQQIAAAoSAABQkAAAgIIEAAAUJAAAoCABAAAFCQAAKEgAAEBBAgAAChIAAFCQAACAggQAABQkAACgIAEAAAUJAAAoSAAAQEECAAAKEgAAUJAAAICCBAAAFCQAAKAgAQAABQkAAChIAABAQQIAAAoSAABQkAAAgIIEAAAUJAAAoCABAAAFCQAAKEgAAEBBAgAAChIAAFCQAACAggQAABQkAACgIAEAAAUJAAAoSADAMlw89QGAdREAsAyvTXLX1IcA1kMAwHLcEREADEQAwLKIAGAQAgCWRwQAxyYAYJlEAHAsAgCWSwQARyYAYNlEAHAkAgCWTwQAhyYAYB1EAHAoAgDWQwQAWxMAsC4iANiKAID1EQHAgQQArJMIAPYlAGC9RABwVgIA1k0EAHsSALB+IgD4AgIAahABwHMIAKhDBADPEgBQiwgAkggAqEgEAAIAihIBUNyJRut+f6N1geHcsfvPOyc9BTAJVwCgNlcCoCgBAIgAKEgAAIkIgHIEAPAMEQCFCADgdCIAihAAwJlEABQgAIC9iABYOQEAnI0IgBUTAMB+RACslAAADiICYIUEALANEQArIwCAbYkAWBEBAByGCICVEADAYYkAWAEBAByFCICFEwDAUYkAWDABAByHCICFEgDAcYkAWCABAAxBBMDCCABgKCIAFkQAAEMSAbAQAgAYmgiABRAAQAsiAGZOAACtiACYMQEAtCQCYKYEANCaCIAZEgDAGEQAzIwAAMYiAmBGBAAwJhEAMyEAgLGJAJgBAQBMQQTAxAQAMBURABMSAMCURABMRAAAUxMBMAEBAMyBCICRCQBgLkQAjEgAAHMiAmAkAgCYGxEAIxAAwByJAGhMAABzJQKgIQEAzJkIgEZONFr3lUm+vNHaUNF1Ux9gQnckeTpJN/E5YFVaBcDtSW5utDZQz5uTnJfkzqkPAmvhFgCwFG4HwIAEALAkIgAGIgCApREBMAABACyRCIBjEgDAUokAOAYBACyZCIAjEgDA0okAOAIBAKyBCIBDEgDAWogAOAQBAKyJCIAtCQBgbUQAbEEAAGskAuAAAgBYKxEA+xAAwJqJADgLAQCsnQiAPQgAoAIRAGcQAEAVIgBOIwCASkQA7BIAQDUiACIAgJpEAOUJAKCqz019AJiSAAAq6pK8ZepDwJQEAFBNF8MfBABQShfDH5IIAKCOLoY/PEsAABV0MfzhOQQAsHZdDH/4AgIAWLMuhj/sSQAAa9XF8IezEgDAGnUx/GFfAgBYmy6GPxxIAABr0sXwh60IAGAtuhj+sDUBAKxBF8MfDkUAAEvXxfCHQxMAwJJ1MfzhSAQAsFRdDH84MgEALFEXwx+ORQAAS9PF8IdjEwDAknQx/GEQAgBYii6GPwzmRKN1fy3JuxutDRVdl+SNUx9iQm+J4Q+DahUAH2y0LlBPF8MfBucWADBnXQx/aEIAAHPVxfCHZgQAMEddDH9oSgAAc9PF8IfmBAAwJ10MfxiFAADmoovhD6MRAMAcdDH8YVQCAJhaF8MfRicAgCl1MfxhEgIAmEoXwx8mIwCAKXQx/GFSAgAYWxfDHyYnAIAxdTH8YRYEADCWLoY/zIYAAMbQxfCHWREAQGtdDH+YHQEAtNTF8IdZEgBAK10Mf5gtAQC00MXwh1kTAMDQuhj+MHsCABhSF8MfFkEAAEPpYvjDYggAYAhdDH9YFAEAHFcXwx8WRwAAx9HF8IdFEgDAUXUx/GGxBABwFF0Mf1g0AQAcVhfDHxZPAACH0cXwh1UQAMC2uhj+sBoCANhGF8MfVkUAAAfpYvjD6ggAYD9dDH9YJQEAnE0Xwx9WSwAAe+li+MOqCQDgTF0Mf1g9AQCcrovhDyUIAOAZXQx/KEMAAInhD+UIAKCL4Q/lCACorYvhDyW1CoB3Jdks5Aeq6mL4Q1muAEBNXQx/KE0AQD1dDH8oTwBALV0MfyACACrpYvgDuwQA1NDF8AdOIwBg/boY/sAZBACsWxfDH9iDAID16mL4A2chAGCduhj+wD4EAKxPF8MfOIAAgHXpYvgDWxAAsB5dDH9gSwIA1qGL4Q8cggCA5eti+AOHJABg2boY/sARCABYri6GP3BEAgCWqYvhDxyDAIDl6WL4A8ckAGBZuhj+wAAEACxHF8MfGMiJqQ8AbOUvkrx76kMA6+EKACzDZ6c+ALAuAgAAChIAAFCQAACAggQAABQkAACgIAEAAAUJAAAoSAAAQEECAAAKEgAAUJAAAICCBAAAFCQAAKAgAQAABQkAAChIAABAQQIAAAoSAABQkAAAgIIEAAAUJAAAoCABAAAFCQAAKEgAAEBBAgAAChIAAFCQAACAggQAABQkAACgIAEAAAUJAAAoSAAAQEECAAAKEgAAUJAAAICCBAAAFCQAAKAgAQAABQkAAChIAABAQQIAAAoSAABQkAAAgIIEAAAUJAAAoCABAAAFCQAAKEgAAEBBAgAAChIAAFCQAACAggQAABQkAACgIAEAAAUJAAAoSAAAQEECAAAKEgAAUJAAAICCBAAAFCQAAKAgAQAABZ1otO6m0botfPvUBwCAfTSZqa0C4KlG67Zw79QHAIB9PNFi0Va3AB5vtC4AVNNkpgoAAJi3z7ZYtFUANDksABS0qCsAn2q0LgBU81CLRVsFwD81WhcAqmkyU3c2m+HfLtjZ2bkoyWNJdgZfHADq2CS5eLPZDP4mQMuHAE82WhsAqngoC3sNMEnua7g2AFTw4VYLtwyA9zVcGwAq+MtWC7cMgGaHBoAims3SVg8BJv0DgCeTfPHgGwDA+j2c5MuSbFrM6pZXADZJ3ttwfQBYs/ek4Zfrtf464Hsarw8Aa/WOlou3vAWQ9LcBHkjyVYNvAgDr9ckkV2X3CsDSbgEk/cHf2XgPAFibu9Pw8n/S/gpA0j/A8GCSLxp8IwBYn6fT/9//sx+ot8QrAEnyb+lLBgA42NsywqfpjnEFIEmuTPKJJOcOvhkArMf/JLk6yb+c/odLvQKQJP8azwIAwEHenjOGfytjXQFIkhen/0rDFwy+IQAs32eSXJvk0TN/seQrAEnySJJfHHE/AFiSN2WP4d/KmFcAkj44PpDkusE3BYDl+rv0s/Hze/1y6VcAkv4/7CeTfG7kfQFgrp5K8oacZfi3MnYAJMk/JPmZCfYFgDn66SQfGXvTsW8BnO7uJLcOvjkALMcfJbnloL/UZFZPGAAXJHl/km8c/AAAMH/3JXlV+lsA+1rDMwCnezLJa5N8bMIzAMAUHkhyU7YY/q1MGQBJ8u9JXpP+g4IAoIKT6WffI1MeYuoASJKHknx3koenPggANPZwku9I8s8Tn2MWAZAk9ye5Pm4HALBeD6a/53//1AdJ5hMASV9D16f/oCAAWJMPJXll+nv/szCnAEiSU+kvjdw98TkAYCi/n+TG9M+9zcaUrwEe5HVJfi/JJUMsBgAjezzJTyX5w+MutLbPAdjGNUnuSfKKoRYEgBF8MP2H3X1iiMXW9jkA2/h4+nsmt2bEb0gCgCM6leTnktyQgYZ/K3O/AnC6S5O8NcmPJzm3xQYAcET/leR3k7w5yWeGXrziLYC9vDjJ7em/POGClhsBwAGeTPK2JL+a5FOtNhEAz3V5ktuSvD7JVWNsCAC7Hkj/jNpvJfl0680EwFm2S/+cwC1Jbk7yojE3B6CMR5O8K/1T/X875sYCYIutk3xd+vctb0zyLemfHQCAw/qP9N9a+77dn48kGX5obkEAHM0VSa5N/0rhNek/V+CFSS5M/wyB5wgAanpy9+eJ9A/uPZb+7bOP7f7M5u2zxQQAADBvc/8cAACgAQEAAAUJAAAoSAAAQEECAAAKEgAAUJAAAICCBAAAFCQAAKAgAQAABQkAAChIAABAQQIAAAoSAABQkAAAgIIEAAAUJAAAoCABAAAFCQAAKEgAAEBBAgAAChIAAFCQAACAggQAABQkAACgIAEAAAUJAAAoSAAAQEECAAAKEgAAUJAAAICCBAAAFCQAAKAgAQAABQkAAChIAABAQQIAAAoSAABQkAAAgIIEAAAUJAAAoCABAAAFCQAAKEgAAEBBAgAAChIAAFCQAACAggQAABQkAACgIAEAAAUJAAAoSAAAQEECAAAKEgAAUJAAAICCBAAAFCQAAKAgAQAABQkAAChIAABAQQIAAAoSAABQkAAAgIL+DwhmsaIYtEeyAAAAAElFTkSuQmCC;shadow=0;strokeColor=default;fontColor=default;" parent="1" vertex="1">
          <mxGeometry x="363.75" y="581.89" width="12" height="12" as="geometry" />
        </mxCell>
        <mxCell id="Kzo5I-FJj0xecOTcukf--2" value="" style="shape=image;verticalLabelPosition=bottom;labelBackgroundColor=default;verticalAlign=top;aspect=fixed;imageAspect=0;image=data:image/png,iVBORw0KGgoAAAANSUhEUgAAAgAAAAIACAYAAAD0eNT6AAAABGdBTUEAALGPC/xhBQAACklpQ0NQc1JHQiBJRUM2MTk2Ni0yLjEAAEiJnVN3WJP3Fj7f92UPVkLY8LGXbIEAIiOsCMgQWaIQkgBhhBASQMWFiApWFBURnEhVxILVCkidiOKgKLhnQYqIWotVXDjuH9yntX167+3t+9f7vOec5/zOec8PgBESJpHmomoAOVKFPDrYH49PSMTJvYACFUjgBCAQ5svCZwXFAADwA3l4fnSwP/wBr28AAgBw1S4kEsfh/4O6UCZXACCRAOAiEucLAZBSAMguVMgUAMgYALBTs2QKAJQAAGx5fEIiAKoNAOz0ST4FANipk9wXANiiHKkIAI0BAJkoRyQCQLsAYFWBUiwCwMIAoKxAIi4EwK4BgFm2MkcCgL0FAHaOWJAPQGAAgJlCLMwAIDgCAEMeE80DIEwDoDDSv+CpX3CFuEgBAMDLlc2XS9IzFLiV0Bp38vDg4iHiwmyxQmEXKRBmCeQinJebIxNI5wNMzgwAABr50cH+OD+Q5+bk4eZm52zv9MWi/mvwbyI+IfHf/ryMAgQAEE7P79pf5eXWA3DHAbB1v2upWwDaVgBo3/ldM9sJoFoK0Hr5i3k4/EAenqFQyDwdHAoLC+0lYqG9MOOLPv8z4W/gi372/EAe/tt68ABxmkCZrcCjg/1xYW52rlKO58sEQjFu9+cj/seFf/2OKdHiNLFcLBWK8ViJuFAiTcd5uVKRRCHJleIS6X8y8R+W/QmTdw0ArIZPwE62B7XLbMB+7gECiw5Y0nYAQH7zLYwaC5EAEGc0Mnn3AACTv/mPQCsBAM2XpOMAALzoGFyolBdMxggAAESggSqwQQcMwRSswA6cwR28wBcCYQZEQAwkwDwQQgbkgBwKoRiWQRlUwDrYBLWwAxqgEZrhELTBMTgN5+ASXIHrcBcGYBiewhi8hgkEQcgIE2EhOogRYo7YIs4IF5mOBCJhSDSSgKQg6YgUUSLFyHKkAqlCapFdSCPyLXIUOY1cQPqQ28ggMor8irxHMZSBslED1AJ1QLmoHxqKxqBz0XQ0D12AlqJr0Rq0Hj2AtqKn0UvodXQAfYqOY4DRMQ5mjNlhXIyHRWCJWBomxxZj5Vg1Vo81Yx1YN3YVG8CeYe8IJAKLgBPsCF6EEMJsgpCQR1hMWEOoJewjtBK6CFcJg4Qxwicik6hPtCV6EvnEeGI6sZBYRqwm7iEeIZ4lXicOE1+TSCQOyZLkTgohJZAySQtJa0jbSC2kU6Q+0hBpnEwm65Btyd7kCLKArCCXkbeQD5BPkvvJw+S3FDrFiOJMCaIkUqSUEko1ZT/lBKWfMkKZoKpRzame1AiqiDqfWkltoHZQL1OHqRM0dZolzZsWQ8ukLaPV0JppZ2n3aC/pdLoJ3YMeRZfQl9Jr6Afp5+mD9HcMDYYNg8dIYigZaxl7GacYtxkvmUymBdOXmchUMNcyG5lnmA+Yb1VYKvYqfBWRyhKVOpVWlX6V56pUVXNVP9V5qgtUq1UPq15WfaZGVbNQ46kJ1Bar1akdVbupNq7OUndSj1DPUV+jvl/9gvpjDbKGhUaghkijVGO3xhmNIRbGMmXxWELWclYD6yxrmE1iW7L57Ex2Bfsbdi97TFNDc6pmrGaRZp3mcc0BDsax4PA52ZxKziHODc57LQMtPy2x1mqtZq1+rTfaetq+2mLtcu0W7eva73VwnUCdLJ31Om0693UJuja6UbqFutt1z+o+02PreekJ9cr1Dund0Uf1bfSj9Rfq79bv0R83MDQINpAZbDE4Y/DMkGPoa5hpuNHwhOGoEctoupHEaKPRSaMnuCbuh2fjNXgXPmasbxxirDTeZdxrPGFiaTLbpMSkxeS+Kc2Ua5pmutG003TMzMgs3KzYrMnsjjnVnGueYb7ZvNv8jYWlRZzFSos2i8eW2pZ8ywWWTZb3rJhWPlZ5VvVW16xJ1lzrLOtt1ldsUBtXmwybOpvLtqitm63Edptt3xTiFI8p0in1U27aMez87ArsmuwG7Tn2YfYl9m32zx3MHBId1jt0O3xydHXMdmxwvOuk4TTDqcSpw+lXZxtnoXOd8zUXpkuQyxKXdpcXU22niqdun3rLleUa7rrStdP1o5u7m9yt2W3U3cw9xX2r+00umxvJXcM970H08PdY4nHM452nm6fC85DnL152Xlle+70eT7OcJp7WMG3I28Rb4L3Le2A6Pj1l+s7pAz7GPgKfep+Hvqa+It89viN+1n6Zfgf8nvs7+sv9j/i/4XnyFvFOBWABwQHlAb2BGoGzA2sDHwSZBKUHNQWNBbsGLww+FUIMCQ1ZH3KTb8AX8hv5YzPcZyya0RXKCJ0VWhv6MMwmTB7WEY6GzwjfEH5vpvlM6cy2CIjgR2yIuB9pGZkX+X0UKSoyqi7qUbRTdHF09yzWrORZ+2e9jvGPqYy5O9tqtnJ2Z6xqbFJsY+ybuIC4qriBeIf4RfGXEnQTJAntieTE2MQ9ieNzAudsmjOc5JpUlnRjruXcorkX5unOy553PFk1WZB8OIWYEpeyP+WDIEJQLxhP5aduTR0T8oSbhU9FvqKNolGxt7hKPJLmnVaV9jjdO31D+miGT0Z1xjMJT1IreZEZkrkj801WRNberM/ZcdktOZSclJyjUg1plrQr1zC3KLdPZisrkw3keeZtyhuTh8r35CP5c/PbFWyFTNGjtFKuUA4WTC+oK3hbGFt4uEi9SFrUM99m/ur5IwuCFny9kLBQuLCz2Lh4WfHgIr9FuxYji1MXdy4xXVK6ZHhp8NJ9y2jLspb9UOJYUlXyannc8o5Sg9KlpUMrglc0lamUycturvRauWMVYZVkVe9ql9VbVn8qF5VfrHCsqK74sEa45uJXTl/VfPV5bdra3kq3yu3rSOuk626s91m/r0q9akHV0IbwDa0b8Y3lG19tSt50oXpq9Y7NtM3KzQM1YTXtW8y2rNvyoTaj9nqdf13LVv2tq7e+2Sba1r/dd3vzDoMdFTve75TsvLUreFdrvUV99W7S7oLdjxpiG7q/5n7duEd3T8Wej3ulewf2Re/ranRvbNyvv7+yCW1SNo0eSDpw5ZuAb9qb7Zp3tXBaKg7CQeXBJ9+mfHvjUOihzsPcw83fmX+39QjrSHkr0jq/dawto22gPaG97+iMo50dXh1Hvrf/fu8x42N1xzWPV56gnSg98fnkgpPjp2Snnp1OPz3Umdx590z8mWtdUV29Z0PPnj8XdO5Mt1/3yfPe549d8Lxw9CL3Ytslt0utPa49R35w/eFIr1tv62X3y+1XPK509E3rO9Hv03/6asDVc9f41y5dn3m978bsG7duJt0cuCW69fh29u0XdwruTNxdeo94r/y+2v3qB/oP6n+0/rFlwG3g+GDAYM/DWQ/vDgmHnv6U/9OH4dJHzEfVI0YjjY+dHx8bDRq98mTOk+GnsqcTz8p+Vv9563Or59/94vtLz1j82PAL+YvPv655qfNy76uprzrHI8cfvM55PfGm/K3O233vuO+638e9H5ko/ED+UPPR+mPHp9BP9z7nfP78L/eE8/stRzjPAAAAIGNIUk0AAHomAACAhAAA+gAAAIDoAAB1MAAA6mAAADqYAAAXcJy6UTwAAAAJcEhZcwAADsQAAA7EAZUrDhsAABHdSURBVHic7d1bjG5nXcfx38BubXqEthRPqWjT0nhAvUBKrcSiiFqvlHpIlRo8JDZGLdG0JBoW4cIaLzQxxkNESkUTwUtETaMkIsGg5UYqAm1Qi7tpxY2lB6pGXi/WtO5uZs+8M7Oedfp/PsmkyZ7d53l69f92Hd53Z7PZBACo5XlTHwAAGJ8AAICCBAAAFCQAAKAgAQAABQkAAChIAABAQQIAAAoSAABQkAAAgIIEAAAUJAAAoCABAAAFCQAAKEgAAEBBAgAAChIAAFCQAACAggQAABQkAACgIAEAAAUJAAAoSAAAQEECAAAKEgAAUJAAAICCBAAAFCQAAKAgAQAABQkAAChIAABAQQIAAAoSAABQkAAAgIIEAAAUJAAAoCABAAAFCQAAKEgAAEBBAgAAChIAAFCQAACAggQAABQkAACgIAEAAAUJAAAoSAAAQEECAAAKEgAAUJAAAICCBAAAFCQAAKAgAQAABQkAAChIAABAQQIAAAoSAABQkAAAgIIEAAAUJAAAoCABAAAFCQAAKEgAAEBBJ1osurOz02LZo3pRkpcmuTbJNUkuSfLCJBcmuWD3B4B6ntz9eSLJfyZ5LMnHd38+muTRyU52hs1mM/iaTQJgYl+d5NVJbkzyqiSXT3scABbqVJL3J/mr3Z/7kww/iSey06IqJrgC8PVJbk3yA0m+dOzNASjhkSR/nOQPkvz9mBs3mdULDoALk/xYkjckedkYGwLAro8meUeS30l/+6ApAdC7KMltSX4hyWUtNwKAAzye5O1J7krycKtNqgfAeUnuSPLGJBe32AAAjuipJL+R5K3pHywcVOUAeHWS30z/JD8AzNXJJG9Kcs+Qi1YMgMuT/HaS7xtqQQAYwZ+nf07t5BCLVQuAb0r/tOVLhlgMAEb26fRvqL33uAu1mNVz/CTA56W/fPKBGP4ALNflSd6T5Jczw8/dmdsVgHPTv1bxg8OdBgAmd2+S703/qYOHtvZbABck+ZMk3znsaQBgFj6U5Kb0twYOZc0BcFmSP0vy8sEPAwDz8Y9JXpNDPhy41gA4P/2lkesHPwgAzM/96b+r5tS2/8IaHwI8J/1lf8MfgCq+Jv2bAZN+G+2UAbCT/uMTv2vCMwDAFF6R/lX35091gCkD4PYkt0y4PwBM6aYkvzTV5lM9A/DyJH+T/rU/AKjq8+nffrt3v7+0locAX5Dkw0m+cvCNAWB5Hk3yDdnn2wTX8hDgr8fwB4BnXJH+mwRHNfYVgBuS/HX6BwABgP/3PUn+dK9fLP0WwIkk9yV52eAbAsDyPZjka5M8feYvln4L4Gdj+APA2VyV5OfH2mysKwDnJ/lk+vscAMDeTqX/JtzHT//DJV8B+IkY/gBwkEuT3DbGRmNcATgnyQNJrhx8IwBYn0fTvy331DN/sNQrAD8Uwx8AtnVFRvik3DEC4EdH2AMA1uT1rTdofQvgyvQP/039rYMAsCSbJFenfzVwkbcAfmSEPQBgbXaS/HDLDVoP55sbrw8Aa/W6lou3vAVwWfonGV0BAIDD2yT5kiSPLO0WwLc1Xh8A1mwnybe2WrzlgL6x4doAUEGzWdoyAG5ouDYAVPDNrRZu9QzA85M8keS8wRcHgDr+O8n5m83mf4deuNUVgJfE8AeA4zo3yVe0WLhVAFzbaF0AqOalLRZtFQBXNVoXAKq5usWirQLg0kbrAkA1l7RYtFUAXNhoXQCo5qIWi7YKgCaHBYCCLm6x6IkWi2ZZVwDunPoAAEzirqkPsKUm/1PdKgDOabRuC78y9QEAmMRSAqDJTPVZ/QBQkAAAgIIEAAAUJAAAoCABAAAFCQAAKEgAAEBBAgAAChIAAFCQAACAggQAABQkAACgIAEAAAUJAAAoSAAAQEECAAAKEgAAUJAAAICCBAAAFCQAAKAgAQAABQkAAChIAABAQQIAAAoSAABQkAAAgIIEAAAUJAAAoCABAAAFCQAAKEgAAEBBAgAAChIAAFCQAACAggQAABQkAACgIAEAAAUJAAAoSAAAQEECAAAKEgAAUJAAAICCBAAAFCQAAKAgAQAABQkAAChIAABAQQIAAAoSAABQkAAAgIIEAAAUJAAAoCABAAAFCQAAKEgAAEBBAgAAChIAAFCQAACAggQAABQkAACgIAEAAAUJAAAoSADAMlw89QGAdREAsAyvTXLX1IcA1kMAwHLcEREADEQAwLKIAGAQAgCWRwQAxyYAYJlEAHAsAgCWSwQARyYAYNlEAHAkAgCWTwQAhyYAYB1EAHAoAgDWQwQAWxMAsC4iANiKAID1EQHAgQQArJMIAPYlAGC9RABwVgIA1k0EAHsSALB+IgD4AgIAahABwHMIAKhDBADPEgBQiwgAkggAqEgEAAIAihIBUNyJRut+f6N1geHcsfvPOyc9BTAJVwCgNlcCoCgBAIgAKEgAAIkIgHIEAPAMEQCFCADgdCIAihAAwJlEABQgAIC9iABYOQEAnI0IgBUTAMB+RACslAAADiICYIUEALANEQArIwCAbYkAWBEBAByGCICVEADAYYkAWAEBAByFCICFEwDAUYkAWDABAByHCICFEgDAcYkAWCABAAxBBMDCCABgKCIAFkQAAEMSAbAQAgAYmgiABRAAQAsiAGZOAACtiACYMQEAtCQCYKYEANCaCIAZEgDAGEQAzIwAAMYiAmBGBAAwJhEAMyEAgLGJAJgBAQBMQQTAxAQAMBURABMSAMCURABMRAAAUxMBMAEBAMyBCICRCQBgLkQAjEgAAHMiAmAkAgCYGxEAIxAAwByJAGhMAABzJQKgIQEAzJkIgEZONFr3lUm+vNHaUNF1Ux9gQnckeTpJN/E5YFVaBcDtSW5utDZQz5uTnJfkzqkPAmvhFgCwFG4HwIAEALAkIgAGIgCApREBMAABACyRCIBjEgDAUokAOAYBACyZCIAjEgDA0okAOAIBAKyBCIBDEgDAWogAOAQBAKyJCIAtCQBgbUQAbEEAAGskAuAAAgBYKxEA+xAAwJqJADgLAQCsnQiAPQgAoAIRAGcQAEAVIgBOIwCASkQA7BIAQDUiACIAgJpEAOUJAKCqz019AJiSAAAq6pK8ZepDwJQEAFBNF8MfBABQShfDH5IIAKCOLoY/PEsAABV0MfzhOQQAsHZdDH/4AgIAWLMuhj/sSQAAa9XF8IezEgDAGnUx/GFfAgBYmy6GPxxIAABr0sXwh60IAGAtuhj+sDUBAKxBF8MfDkUAAEvXxfCHQxMAwJJ1MfzhSAQAsFRdDH84MgEALFEXwx+ORQAAS9PF8IdjEwDAknQx/GEQAgBYii6GPwzmRKN1fy3JuxutDRVdl+SNUx9iQm+J4Q+DahUAH2y0LlBPF8MfBucWADBnXQx/aEIAAHPVxfCHZgQAMEddDH9oSgAAc9PF8IfmBAAwJ10MfxiFAADmoovhD6MRAMAcdDH8YVQCAJhaF8MfRicAgCl1MfxhEgIAmEoXwx8mIwCAKXQx/GFSAgAYWxfDHyYnAIAxdTH8YRYEADCWLoY/zIYAAMbQxfCHWREAQGtdDH+YHQEAtNTF8IdZEgBAK10Mf5gtAQC00MXwh1kTAMDQuhj+MHsCABhSF8MfFkEAAEPpYvjDYggAYAhdDH9YFAEAHFcXwx8WRwAAx9HF8IdFEgDAUXUx/GGxBABwFF0Mf1g0AQAcVhfDHxZPAACH0cXwh1UQAMC2uhj+sBoCANhGF8MfVkUAAAfpYvjD6ggAYD9dDH9YJQEAnE0Xwx9WSwAAe+li+MOqCQDgTF0Mf1g9AQCcrovhDyUIAOAZXQx/KEMAAInhD+UIAKCL4Q/lCACorYvhDyW1CoB3Jdks5Aeq6mL4Q1muAEBNXQx/KE0AQD1dDH8oTwBALV0MfyACACrpYvgDuwQA1NDF8AdOIwBg/boY/sAZBACsWxfDH9iDAID16mL4A2chAGCduhj+wD4EAKxPF8MfOIAAgHXpYvgDWxAAsB5dDH9gSwIA1qGL4Q8cggCA5eti+AOHJABg2boY/sARCABYri6GP3BEAgCWqYvhDxyDAIDl6WL4A8ckAGBZuhj+wAAEACxHF8MfGMiJqQ8AbOUvkrx76kMA6+EKACzDZ6c+ALAuAgAAChIAAFCQAACAggQAABQkAACgIAEAAAUJAAAoSAAAQEECAAAKEgAAUJAAAICCBAAAFCQAAKAgAQAABQkAAChIAABAQQIAAAoSAABQkAAAgIIEAAAUJAAAoCABAAAFCQAAKEgAAEBBAgAAChIAAFCQAACAggQAABQkAACgIAEAAAUJAAAoSAAAQEECAAAKEgAAUJAAAICCBAAAFCQAAKAgAQAABQkAAChIAABAQQIAAAoSAABQkAAAgIIEAAAUJAAAoCABAAAFCQAAKEgAAEBBAgAAChIAAFCQAACAggQAABQkAACgIAEAAAUJAAAoSAAAQEECAAAKEgAAUJAAAICCBAAAFCQAAKAgAQAABZ1otO6m0botfPvUBwCAfTSZqa0C4KlG67Zw79QHAIB9PNFi0Va3AB5vtC4AVNNkpgoAAJi3z7ZYtFUANDksABS0qCsAn2q0LgBU81CLRVsFwD81WhcAqmkyU3c2m+HfLtjZ2bkoyWNJdgZfHADq2CS5eLPZDP4mQMuHAE82WhsAqngoC3sNMEnua7g2AFTw4VYLtwyA9zVcGwAq+MtWC7cMgGaHBoAims3SVg8BJv0DgCeTfPHgGwDA+j2c5MuSbFrM6pZXADZJ3ttwfQBYs/ek4Zfrtf464Hsarw8Aa/WOlou3vAWQ9LcBHkjyVYNvAgDr9ckkV2X3CsDSbgEk/cHf2XgPAFibu9Pw8n/S/gpA0j/A8GCSLxp8IwBYn6fT/9//sx+ot8QrAEnyb+lLBgA42NsywqfpjnEFIEmuTPKJJOcOvhkArMf/JLk6yb+c/odLvQKQJP8azwIAwEHenjOGfytjXQFIkhen/0rDFwy+IQAs32eSXJvk0TN/seQrAEnySJJfHHE/AFiSN2WP4d/KmFcAkj44PpDkusE3BYDl+rv0s/Hze/1y6VcAkv4/7CeTfG7kfQFgrp5K8oacZfi3MnYAJMk/JPmZCfYFgDn66SQfGXvTsW8BnO7uJLcOvjkALMcfJbnloL/UZFZPGAAXJHl/km8c/AAAMH/3JXlV+lsA+1rDMwCnezLJa5N8bMIzAMAUHkhyU7YY/q1MGQBJ8u9JXpP+g4IAoIKT6WffI1MeYuoASJKHknx3koenPggANPZwku9I8s8Tn2MWAZAk9ye5Pm4HALBeD6a/53//1AdJ5hMASV9D16f/oCAAWJMPJXll+nv/szCnAEiSU+kvjdw98TkAYCi/n+TG9M+9zcaUrwEe5HVJfi/JJUMsBgAjezzJTyX5w+MutLbPAdjGNUnuSfKKoRYEgBF8MP2H3X1iiMXW9jkA2/h4+nsmt2bEb0gCgCM6leTnktyQgYZ/K3O/AnC6S5O8NcmPJzm3xQYAcET/leR3k7w5yWeGXrziLYC9vDjJ7em/POGClhsBwAGeTPK2JL+a5FOtNhEAz3V5ktuSvD7JVWNsCAC7Hkj/jNpvJfl0680EwFm2S/+cwC1Jbk7yojE3B6CMR5O8K/1T/X875sYCYIutk3xd+vctb0zyLemfHQCAw/qP9N9a+77dn48kGX5obkEAHM0VSa5N/0rhNek/V+CFSS5M/wyB5wgAanpy9+eJ9A/uPZb+7bOP7f7M5u2zxQQAADBvc/8cAACgAQEAAAUJAAAoSAAAQEECAAAKEgAAUJAAAICCBAAAFCQAAKAgAQAABQkAAChIAABAQQIAAAoSAABQkAAAgIIEAAAUJAAAoCABAAAFCQAAKEgAAEBBAgAAChIAAFCQAACAggQAABQkAACgIAEAAAUJAAAoSAAAQEECAAAKEgAAUJAAAICCBAAAFCQAAKAgAQAABQkAAChIAABAQQIAAAoSAABQkAAAgIIEAAAUJAAAoCABAAAFCQAAKEgAAEBBAgAAChIAAFCQAACAggQAABQkAACgIAEAAAUJAAAoSAAAQEECAAAKEgAAUJAAAICCBAAAFCQAAKAgAQAABQkAAChIAABAQQIAAAoSAABQkAAAgIL+DwhmsaIYtEeyAAAAAElFTkSuQmCC;shadow=0;strokeColor=default;fontColor=default;" parent="1" vertex="1">
          <mxGeometry x="432.75" y="617.89" width="12" height="12" as="geometry" />
        </mxCell>
        <mxCell id="Kzo5I-FJj0xecOTcukf--3" value="" style="shape=image;verticalLabelPosition=bottom;labelBackgroundColor=default;verticalAlign=top;aspect=fixed;imageAspect=0;image=data:image/png,iVBORw0KGgoAAAANSUhEUgAAAgAAAAIACAYAAAD0eNT6AAAABGdBTUEAALGPC/xhBQAACklpQ0NQc1JHQiBJRUM2MTk2Ni0yLjEAAEiJnVN3WJP3Fj7f92UPVkLY8LGXbIEAIiOsCMgQWaIQkgBhhBASQMWFiApWFBURnEhVxILVCkidiOKgKLhnQYqIWotVXDjuH9yntX167+3t+9f7vOec5/zOec8PgBESJpHmomoAOVKFPDrYH49PSMTJvYACFUjgBCAQ5svCZwXFAADwA3l4fnSwP/wBr28AAgBw1S4kEsfh/4O6UCZXACCRAOAiEucLAZBSAMguVMgUAMgYALBTs2QKAJQAAGx5fEIiAKoNAOz0ST4FANipk9wXANiiHKkIAI0BAJkoRyQCQLsAYFWBUiwCwMIAoKxAIi4EwK4BgFm2MkcCgL0FAHaOWJAPQGAAgJlCLMwAIDgCAEMeE80DIEwDoDDSv+CpX3CFuEgBAMDLlc2XS9IzFLiV0Bp38vDg4iHiwmyxQmEXKRBmCeQinJebIxNI5wNMzgwAABr50cH+OD+Q5+bk4eZm52zv9MWi/mvwbyI+IfHf/ryMAgQAEE7P79pf5eXWA3DHAbB1v2upWwDaVgBo3/ldM9sJoFoK0Hr5i3k4/EAenqFQyDwdHAoLC+0lYqG9MOOLPv8z4W/gi372/EAe/tt68ABxmkCZrcCjg/1xYW52rlKO58sEQjFu9+cj/seFf/2OKdHiNLFcLBWK8ViJuFAiTcd5uVKRRCHJleIS6X8y8R+W/QmTdw0ArIZPwE62B7XLbMB+7gECiw5Y0nYAQH7zLYwaC5EAEGc0Mnn3AACTv/mPQCsBAM2XpOMAALzoGFyolBdMxggAAESggSqwQQcMwRSswA6cwR28wBcCYQZEQAwkwDwQQgbkgBwKoRiWQRlUwDrYBLWwAxqgEZrhELTBMTgN5+ASXIHrcBcGYBiewhi8hgkEQcgIE2EhOogRYo7YIs4IF5mOBCJhSDSSgKQg6YgUUSLFyHKkAqlCapFdSCPyLXIUOY1cQPqQ28ggMor8irxHMZSBslED1AJ1QLmoHxqKxqBz0XQ0D12AlqJr0Rq0Hj2AtqKn0UvodXQAfYqOY4DRMQ5mjNlhXIyHRWCJWBomxxZj5Vg1Vo81Yx1YN3YVG8CeYe8IJAKLgBPsCF6EEMJsgpCQR1hMWEOoJewjtBK6CFcJg4Qxwicik6hPtCV6EvnEeGI6sZBYRqwm7iEeIZ4lXicOE1+TSCQOyZLkTgohJZAySQtJa0jbSC2kU6Q+0hBpnEwm65Btyd7kCLKArCCXkbeQD5BPkvvJw+S3FDrFiOJMCaIkUqSUEko1ZT/lBKWfMkKZoKpRzame1AiqiDqfWkltoHZQL1OHqRM0dZolzZsWQ8ukLaPV0JppZ2n3aC/pdLoJ3YMeRZfQl9Jr6Afp5+mD9HcMDYYNg8dIYigZaxl7GacYtxkvmUymBdOXmchUMNcyG5lnmA+Yb1VYKvYqfBWRyhKVOpVWlX6V56pUVXNVP9V5qgtUq1UPq15WfaZGVbNQ46kJ1Bar1akdVbupNq7OUndSj1DPUV+jvl/9gvpjDbKGhUaghkijVGO3xhmNIRbGMmXxWELWclYD6yxrmE1iW7L57Ex2Bfsbdi97TFNDc6pmrGaRZp3mcc0BDsax4PA52ZxKziHODc57LQMtPy2x1mqtZq1+rTfaetq+2mLtcu0W7eva73VwnUCdLJ31Om0693UJuja6UbqFutt1z+o+02PreekJ9cr1Dund0Uf1bfSj9Rfq79bv0R83MDQINpAZbDE4Y/DMkGPoa5hpuNHwhOGoEctoupHEaKPRSaMnuCbuh2fjNXgXPmasbxxirDTeZdxrPGFiaTLbpMSkxeS+Kc2Ua5pmutG003TMzMgs3KzYrMnsjjnVnGueYb7ZvNv8jYWlRZzFSos2i8eW2pZ8ywWWTZb3rJhWPlZ5VvVW16xJ1lzrLOtt1ldsUBtXmwybOpvLtqitm63Edptt3xTiFI8p0in1U27aMez87ArsmuwG7Tn2YfYl9m32zx3MHBId1jt0O3xydHXMdmxwvOuk4TTDqcSpw+lXZxtnoXOd8zUXpkuQyxKXdpcXU22niqdun3rLleUa7rrStdP1o5u7m9yt2W3U3cw9xX2r+00umxvJXcM970H08PdY4nHM452nm6fC85DnL152Xlle+70eT7OcJp7WMG3I28Rb4L3Le2A6Pj1l+s7pAz7GPgKfep+Hvqa+It89viN+1n6Zfgf8nvs7+sv9j/i/4XnyFvFOBWABwQHlAb2BGoGzA2sDHwSZBKUHNQWNBbsGLww+FUIMCQ1ZH3KTb8AX8hv5YzPcZyya0RXKCJ0VWhv6MMwmTB7WEY6GzwjfEH5vpvlM6cy2CIjgR2yIuB9pGZkX+X0UKSoyqi7qUbRTdHF09yzWrORZ+2e9jvGPqYy5O9tqtnJ2Z6xqbFJsY+ybuIC4qriBeIf4RfGXEnQTJAntieTE2MQ9ieNzAudsmjOc5JpUlnRjruXcorkX5unOy553PFk1WZB8OIWYEpeyP+WDIEJQLxhP5aduTR0T8oSbhU9FvqKNolGxt7hKPJLmnVaV9jjdO31D+miGT0Z1xjMJT1IreZEZkrkj801WRNberM/ZcdktOZSclJyjUg1plrQr1zC3KLdPZisrkw3keeZtyhuTh8r35CP5c/PbFWyFTNGjtFKuUA4WTC+oK3hbGFt4uEi9SFrUM99m/ur5IwuCFny9kLBQuLCz2Lh4WfHgIr9FuxYji1MXdy4xXVK6ZHhp8NJ9y2jLspb9UOJYUlXyannc8o5Sg9KlpUMrglc0lamUycturvRauWMVYZVkVe9ql9VbVn8qF5VfrHCsqK74sEa45uJXTl/VfPV5bdra3kq3yu3rSOuk626s91m/r0q9akHV0IbwDa0b8Y3lG19tSt50oXpq9Y7NtM3KzQM1YTXtW8y2rNvyoTaj9nqdf13LVv2tq7e+2Sba1r/dd3vzDoMdFTve75TsvLUreFdrvUV99W7S7oLdjxpiG7q/5n7duEd3T8Wej3ulewf2Re/ranRvbNyvv7+yCW1SNo0eSDpw5ZuAb9qb7Zp3tXBaKg7CQeXBJ9+mfHvjUOihzsPcw83fmX+39QjrSHkr0jq/dawto22gPaG97+iMo50dXh1Hvrf/fu8x42N1xzWPV56gnSg98fnkgpPjp2Snnp1OPz3Umdx590z8mWtdUV29Z0PPnj8XdO5Mt1/3yfPe549d8Lxw9CL3Ytslt0utPa49R35w/eFIr1tv62X3y+1XPK509E3rO9Hv03/6asDVc9f41y5dn3m978bsG7duJt0cuCW69fh29u0XdwruTNxdeo94r/y+2v3qB/oP6n+0/rFlwG3g+GDAYM/DWQ/vDgmHnv6U/9OH4dJHzEfVI0YjjY+dHx8bDRq98mTOk+GnsqcTz8p+Vv9563Or59/94vtLz1j82PAL+YvPv655qfNy76uprzrHI8cfvM55PfGm/K3O233vuO+638e9H5ko/ED+UPPR+mPHp9BP9z7nfP78L/eE8/stRzjPAAAAIGNIUk0AAHomAACAhAAA+gAAAIDoAAB1MAAA6mAAADqYAAAXcJy6UTwAAAAJcEhZcwAADsQAAA7EAZUrDhsAABHdSURBVHic7d1bjG5nXcfx38BubXqEthRPqWjT0nhAvUBKrcSiiFqvlHpIlRo8JDZGLdG0JBoW4cIaLzQxxkNESkUTwUtETaMkIsGg5UYqAm1Qi7tpxY2lB6pGXi/WtO5uZs+8M7Oedfp/PsmkyZ7d53l69f92Hd53Z7PZBACo5XlTHwAAGJ8AAICCBAAAFCQAAKAgAQAABQkAAChIAABAQQIAAAoSAABQkAAAgIIEAAAUJAAAoCABAAAFCQAAKEgAAEBBAgAAChIAAFCQAACAggQAABQkAACgIAEAAAUJAAAoSAAAQEECAAAKEgAAUJAAAICCBAAAFCQAAKAgAQAABQkAAChIAABAQQIAAAoSAABQkAAAgIIEAAAUJAAAoCABAAAFCQAAKEgAAEBBAgAAChIAAFCQAACAggQAABQkAACgIAEAAAUJAAAoSAAAQEECAAAKEgAAUJAAAICCBAAAFCQAAKAgAQAABQkAAChIAABAQQIAAAoSAABQkAAAgIIEAAAUJAAAoCABAAAFCQAAKEgAAEBBJ1osurOz02LZo3pRkpcmuTbJNUkuSfLCJBcmuWD3B4B6ntz9eSLJfyZ5LMnHd38+muTRyU52hs1mM/iaTQJgYl+d5NVJbkzyqiSXT3scABbqVJL3J/mr3Z/7kww/iSey06IqJrgC8PVJbk3yA0m+dOzNASjhkSR/nOQPkvz9mBs3mdULDoALk/xYkjckedkYGwLAro8meUeS30l/+6ApAdC7KMltSX4hyWUtNwKAAzye5O1J7krycKtNqgfAeUnuSPLGJBe32AAAjuipJL+R5K3pHywcVOUAeHWS30z/JD8AzNXJJG9Kcs+Qi1YMgMuT/HaS7xtqQQAYwZ+nf07t5BCLVQuAb0r/tOVLhlgMAEb26fRvqL33uAu1mNVz/CTA56W/fPKBGP4ALNflSd6T5Jczw8/dmdsVgHPTv1bxg8OdBgAmd2+S703/qYOHtvZbABck+ZMk3znsaQBgFj6U5Kb0twYOZc0BcFmSP0vy8sEPAwDz8Y9JXpNDPhy41gA4P/2lkesHPwgAzM/96b+r5tS2/8IaHwI8J/1lf8MfgCq+Jv2bAZN+G+2UAbCT/uMTv2vCMwDAFF6R/lX35091gCkD4PYkt0y4PwBM6aYkvzTV5lM9A/DyJH+T/rU/AKjq8+nffrt3v7+0locAX5Dkw0m+cvCNAWB5Hk3yDdnn2wTX8hDgr8fwB4BnXJH+mwRHNfYVgBuS/HX6BwABgP/3PUn+dK9fLP0WwIkk9yV52eAbAsDyPZjka5M8feYvln4L4Gdj+APA2VyV5OfH2mysKwDnJ/lk+vscAMDeTqX/JtzHT//DJV8B+IkY/gBwkEuT3DbGRmNcATgnyQNJrhx8IwBYn0fTvy331DN/sNQrAD8Uwx8AtnVFRvik3DEC4EdH2AMA1uT1rTdofQvgyvQP/039rYMAsCSbJFenfzVwkbcAfmSEPQBgbXaS/HDLDVoP55sbrw8Aa/W6lou3vAVwWfonGV0BAIDD2yT5kiSPLO0WwLc1Xh8A1mwnybe2WrzlgL6x4doAUEGzWdoyAG5ouDYAVPDNrRZu9QzA85M8keS8wRcHgDr+O8n5m83mf4deuNUVgJfE8AeA4zo3yVe0WLhVAFzbaF0AqOalLRZtFQBXNVoXAKq5usWirQLg0kbrAkA1l7RYtFUAXNhoXQCo5qIWi7YKgCaHBYCCLm6x6IkWi2ZZVwDunPoAAEzirqkPsKUm/1PdKgDOabRuC78y9QEAmMRSAqDJTPVZ/QBQkAAAgIIEAAAUJAAAoCABAAAFCQAAKEgAAEBBAgAAChIAAFCQAACAggQAABQkAACgIAEAAAUJAAAoSAAAQEECAAAKEgAAUJAAAICCBAAAFCQAAKAgAQAABQkAAChIAABAQQIAAAoSAABQkAAAgIIEAAAUJAAAoCABAAAFCQAAKEgAAEBBAgAAChIAAFCQAACAggQAABQkAACgIAEAAAUJAAAoSAAAQEECAAAKEgAAUJAAAICCBAAAFCQAAKAgAQAABQkAAChIAABAQQIAAAoSAABQkAAAgIIEAAAUJAAAoCABAAAFCQAAKEgAAEBBAgAAChIAAFCQAACAggQAABQkAACgIAEAAAUJAAAoSADAMlw89QGAdREAsAyvTXLX1IcA1kMAwHLcEREADEQAwLKIAGAQAgCWRwQAxyYAYJlEAHAsAgCWSwQARyYAYNlEAHAkAgCWTwQAhyYAYB1EAHAoAgDWQwQAWxMAsC4iANiKAID1EQHAgQQArJMIAPYlAGC9RABwVgIA1k0EAHsSALB+IgD4AgIAahABwHMIAKhDBADPEgBQiwgAkggAqEgEAAIAihIBUNyJRut+f6N1geHcsfvPOyc9BTAJVwCgNlcCoCgBAIgAKEgAAIkIgHIEAPAMEQCFCADgdCIAihAAwJlEABQgAIC9iABYOQEAnI0IgBUTAMB+RACslAAADiICYIUEALANEQArIwCAbYkAWBEBAByGCICVEADAYYkAWAEBAByFCICFEwDAUYkAWDABAByHCICFEgDAcYkAWCABAAxBBMDCCABgKCIAFkQAAEMSAbAQAgAYmgiABRAAQAsiAGZOAACtiACYMQEAtCQCYKYEANCaCIAZEgDAGEQAzIwAAMYiAmBGBAAwJhEAMyEAgLGJAJgBAQBMQQTAxAQAMBURABMSAMCURABMRAAAUxMBMAEBAMyBCICRCQBgLkQAjEgAAHMiAmAkAgCYGxEAIxAAwByJAGhMAABzJQKgIQEAzJkIgEZONFr3lUm+vNHaUNF1Ux9gQnckeTpJN/E5YFVaBcDtSW5utDZQz5uTnJfkzqkPAmvhFgCwFG4HwIAEALAkIgAGIgCApREBMAABACyRCIBjEgDAUokAOAYBACyZCIAjEgDA0okAOAIBAKyBCIBDEgDAWogAOAQBAKyJCIAtCQBgbUQAbEEAAGskAuAAAgBYKxEA+xAAwJqJADgLAQCsnQiAPQgAoAIRAGcQAEAVIgBOIwCASkQA7BIAQDUiACIAgJpEAOUJAKCqz019AJiSAAAq6pK8ZepDwJQEAFBNF8MfBABQShfDH5IIAKCOLoY/PEsAABV0MfzhOQQAsHZdDH/4AgIAWLMuhj/sSQAAa9XF8IezEgDAGnUx/GFfAgBYmy6GPxxIAABr0sXwh60IAGAtuhj+sDUBAKxBF8MfDkUAAEvXxfCHQxMAwJJ1MfzhSAQAsFRdDH84MgEALFEXwx+ORQAAS9PF8IdjEwDAknQx/GEQAgBYii6GPwzmRKN1fy3JuxutDRVdl+SNUx9iQm+J4Q+DahUAH2y0LlBPF8MfBucWADBnXQx/aEIAAHPVxfCHZgQAMEddDH9oSgAAc9PF8IfmBAAwJ10MfxiFAADmoovhD6MRAMAcdDH8YVQCAJhaF8MfRicAgCl1MfxhEgIAmEoXwx8mIwCAKXQx/GFSAgAYWxfDHyYnAIAxdTH8YRYEADCWLoY/zIYAAMbQxfCHWREAQGtdDH+YHQEAtNTF8IdZEgBAK10Mf5gtAQC00MXwh1kTAMDQuhj+MHsCABhSF8MfFkEAAEPpYvjDYggAYAhdDH9YFAEAHFcXwx8WRwAAx9HF8IdFEgDAUXUx/GGxBABwFF0Mf1g0AQAcVhfDHxZPAACH0cXwh1UQAMC2uhj+sBoCANhGF8MfVkUAAAfpYvjD6ggAYD9dDH9YJQEAnE0Xwx9WSwAAe+li+MOqCQDgTF0Mf1g9AQCcrovhDyUIAOAZXQx/KEMAAInhD+UIAKCL4Q/lCACorYvhDyW1CoB3Jdks5Aeq6mL4Q1muAEBNXQx/KE0AQD1dDH8oTwBALV0MfyACACrpYvgDuwQA1NDF8AdOIwBg/boY/sAZBACsWxfDH9iDAID16mL4A2chAGCduhj+wD4EAKxPF8MfOIAAgHXpYvgDWxAAsB5dDH9gSwIA1qGL4Q8cggCA5eti+AOHJABg2boY/sARCABYri6GP3BEAgCWqYvhDxyDAIDl6WL4A8ckAGBZuhj+wAAEACxHF8MfGMiJqQ8AbOUvkrx76kMA6+EKACzDZ6c+ALAuAgAAChIAAFCQAACAggQAABQkAACgIAEAAAUJAAAoSAAAQEECAAAKEgAAUJAAAICCBAAAFCQAAKAgAQAABQkAAChIAABAQQIAAAoSAABQkAAAgIIEAAAUJAAAoCABAAAFCQAAKEgAAEBBAgAAChIAAFCQAACAggQAABQkAACgIAEAAAUJAAAoSAAAQEECAAAKEgAAUJAAAICCBAAAFCQAAKAgAQAABQkAAChIAABAQQIAAAoSAABQkAAAgIIEAAAUJAAAoCABAAAFCQAAKEgAAEBBAgAAChIAAFCQAACAggQAABQkAACgIAEAAAUJAAAoSAAAQEECAAAKEgAAUJAAAICCBAAAFCQAAKAgAQAABZ1otO6m0botfPvUBwCAfTSZqa0C4KlG67Zw79QHAIB9PNFi0Va3AB5vtC4AVNNkpgoAAJi3z7ZYtFUANDksABS0qCsAn2q0LgBU81CLRVsFwD81WhcAqmkyU3c2m+HfLtjZ2bkoyWNJdgZfHADq2CS5eLPZDP4mQMuHAE82WhsAqngoC3sNMEnua7g2AFTw4VYLtwyA9zVcGwAq+MtWC7cMgGaHBoAims3SVg8BJv0DgCeTfPHgGwDA+j2c5MuSbFrM6pZXADZJ3ttwfQBYs/ek4Zfrtf464Hsarw8Aa/WOlou3vAWQ9LcBHkjyVYNvAgDr9ckkV2X3CsDSbgEk/cHf2XgPAFibu9Pw8n/S/gpA0j/A8GCSLxp8IwBYn6fT/9//sx+ot8QrAEnyb+lLBgA42NsywqfpjnEFIEmuTPKJJOcOvhkArMf/JLk6yb+c/odLvQKQJP8azwIAwEHenjOGfytjXQFIkhen/0rDFwy+IQAs32eSXJvk0TN/seQrAEnySJJfHHE/AFiSN2WP4d/KmFcAkj44PpDkusE3BYDl+rv0s/Hze/1y6VcAkv4/7CeTfG7kfQFgrp5K8oacZfi3MnYAJMk/JPmZCfYFgDn66SQfGXvTsW8BnO7uJLcOvjkALMcfJbnloL/UZFZPGAAXJHl/km8c/AAAMH/3JXlV+lsA+1rDMwCnezLJa5N8bMIzAMAUHkhyU7YY/q1MGQBJ8u9JXpP+g4IAoIKT6WffI1MeYuoASJKHknx3koenPggANPZwku9I8s8Tn2MWAZAk9ye5Pm4HALBeD6a/53//1AdJ5hMASV9D16f/oCAAWJMPJXll+nv/szCnAEiSU+kvjdw98TkAYCi/n+TG9M+9zcaUrwEe5HVJfi/JJUMsBgAjezzJTyX5w+MutLbPAdjGNUnuSfKKoRYEgBF8MP2H3X1iiMXW9jkA2/h4+nsmt2bEb0gCgCM6leTnktyQgYZ/K3O/AnC6S5O8NcmPJzm3xQYAcET/leR3k7w5yWeGXrziLYC9vDjJ7em/POGClhsBwAGeTPK2JL+a5FOtNhEAz3V5ktuSvD7JVWNsCAC7Hkj/jNpvJfl0680EwFm2S/+cwC1Jbk7yojE3B6CMR5O8K/1T/X875sYCYIutk3xd+vctb0zyLemfHQCAw/qP9N9a+77dn48kGX5obkEAHM0VSa5N/0rhNek/V+CFSS5M/wyB5wgAanpy9+eJ9A/uPZb+7bOP7f7M5u2zxQQAADBvc/8cAACgAQEAAAUJAAAoSAAAQEECAAAKEgAAUJAAAICCBAAAFCQAAKAgAQAABQkAAChIAABAQQIAAAoSAABQkAAAgIIEAAAUJAAAoCABAAAFCQAAKEgAAEBBAgAAChIAAFCQAACAggQAABQkAACgIAEAAAUJAAAoSAAAQEECAAAKEgAAUJAAAICCBAAAFCQAAKAgAQAABQkAAChIAABAQQIAAAoSAABQkAAAgIIEAAAUJAAAoCABAAAFCQAAKEgAAEBBAgAAChIAAFCQAACAggQAABQkAACgIAEAAAUJAAAoSAAAQEECAAAKEgAAUJAAAICCBAAAFCQAAKAgAQAABQkAAChIAABAQQIAAAoSAABQkAAAgIL+DwhmsaIYtEeyAAAAAElFTkSuQmCC;shadow=0;strokeColor=default;fontColor=default;" parent="1" vertex="1">
          <mxGeometry x="503" y="646.11" width="12" height="12" as="geometry" />
        </mxCell>
        <mxCell id="Kzo5I-FJj0xecOTcukf--4" value="" style="shape=image;verticalLabelPosition=bottom;labelBackgroundColor=default;verticalAlign=top;aspect=fixed;imageAspect=0;image=data:image/png,iVBORw0KGgoAAAANSUhEUgAAAgAAAAIACAYAAAD0eNT6AAAABGdBTUEAALGPC/xhBQAACklpQ0NQc1JHQiBJRUM2MTk2Ni0yLjEAAEiJnVN3WJP3Fj7f92UPVkLY8LGXbIEAIiOsCMgQWaIQkgBhhBASQMWFiApWFBURnEhVxILVCkidiOKgKLhnQYqIWotVXDjuH9yntX167+3t+9f7vOec5/zOec8PgBESJpHmomoAOVKFPDrYH49PSMTJvYACFUjgBCAQ5svCZwXFAADwA3l4fnSwP/wBr28AAgBw1S4kEsfh/4O6UCZXACCRAOAiEucLAZBSAMguVMgUAMgYALBTs2QKAJQAAGx5fEIiAKoNAOz0ST4FANipk9wXANiiHKkIAI0BAJkoRyQCQLsAYFWBUiwCwMIAoKxAIi4EwK4BgFm2MkcCgL0FAHaOWJAPQGAAgJlCLMwAIDgCAEMeE80DIEwDoDDSv+CpX3CFuEgBAMDLlc2XS9IzFLiV0Bp38vDg4iHiwmyxQmEXKRBmCeQinJebIxNI5wNMzgwAABr50cH+OD+Q5+bk4eZm52zv9MWi/mvwbyI+IfHf/ryMAgQAEE7P79pf5eXWA3DHAbB1v2upWwDaVgBo3/ldM9sJoFoK0Hr5i3k4/EAenqFQyDwdHAoLC+0lYqG9MOOLPv8z4W/gi372/EAe/tt68ABxmkCZrcCjg/1xYW52rlKO58sEQjFu9+cj/seFf/2OKdHiNLFcLBWK8ViJuFAiTcd5uVKRRCHJleIS6X8y8R+W/QmTdw0ArIZPwE62B7XLbMB+7gECiw5Y0nYAQH7zLYwaC5EAEGc0Mnn3AACTv/mPQCsBAM2XpOMAALzoGFyolBdMxggAAESggSqwQQcMwRSswA6cwR28wBcCYQZEQAwkwDwQQgbkgBwKoRiWQRlUwDrYBLWwAxqgEZrhELTBMTgN5+ASXIHrcBcGYBiewhi8hgkEQcgIE2EhOogRYo7YIs4IF5mOBCJhSDSSgKQg6YgUUSLFyHKkAqlCapFdSCPyLXIUOY1cQPqQ28ggMor8irxHMZSBslED1AJ1QLmoHxqKxqBz0XQ0D12AlqJr0Rq0Hj2AtqKn0UvodXQAfYqOY4DRMQ5mjNlhXIyHRWCJWBomxxZj5Vg1Vo81Yx1YN3YVG8CeYe8IJAKLgBPsCF6EEMJsgpCQR1hMWEOoJewjtBK6CFcJg4Qxwicik6hPtCV6EvnEeGI6sZBYRqwm7iEeIZ4lXicOE1+TSCQOyZLkTgohJZAySQtJa0jbSC2kU6Q+0hBpnEwm65Btyd7kCLKArCCXkbeQD5BPkvvJw+S3FDrFiOJMCaIkUqSUEko1ZT/lBKWfMkKZoKpRzame1AiqiDqfWkltoHZQL1OHqRM0dZolzZsWQ8ukLaPV0JppZ2n3aC/pdLoJ3YMeRZfQl9Jr6Afp5+mD9HcMDYYNg8dIYigZaxl7GacYtxkvmUymBdOXmchUMNcyG5lnmA+Yb1VYKvYqfBWRyhKVOpVWlX6V56pUVXNVP9V5qgtUq1UPq15WfaZGVbNQ46kJ1Bar1akdVbupNq7OUndSj1DPUV+jvl/9gvpjDbKGhUaghkijVGO3xhmNIRbGMmXxWELWclYD6yxrmE1iW7L57Ex2Bfsbdi97TFNDc6pmrGaRZp3mcc0BDsax4PA52ZxKziHODc57LQMtPy2x1mqtZq1+rTfaetq+2mLtcu0W7eva73VwnUCdLJ31Om0693UJuja6UbqFutt1z+o+02PreekJ9cr1Dund0Uf1bfSj9Rfq79bv0R83MDQINpAZbDE4Y/DMkGPoa5hpuNHwhOGoEctoupHEaKPRSaMnuCbuh2fjNXgXPmasbxxirDTeZdxrPGFiaTLbpMSkxeS+Kc2Ua5pmutG003TMzMgs3KzYrMnsjjnVnGueYb7ZvNv8jYWlRZzFSos2i8eW2pZ8ywWWTZb3rJhWPlZ5VvVW16xJ1lzrLOtt1ldsUBtXmwybOpvLtqitm63Edptt3xTiFI8p0in1U27aMez87ArsmuwG7Tn2YfYl9m32zx3MHBId1jt0O3xydHXMdmxwvOuk4TTDqcSpw+lXZxtnoXOd8zUXpkuQyxKXdpcXU22niqdun3rLleUa7rrStdP1o5u7m9yt2W3U3cw9xX2r+00umxvJXcM970H08PdY4nHM452nm6fC85DnL152Xlle+70eT7OcJp7WMG3I28Rb4L3Le2A6Pj1l+s7pAz7GPgKfep+Hvqa+It89viN+1n6Zfgf8nvs7+sv9j/i/4XnyFvFOBWABwQHlAb2BGoGzA2sDHwSZBKUHNQWNBbsGLww+FUIMCQ1ZH3KTb8AX8hv5YzPcZyya0RXKCJ0VWhv6MMwmTB7WEY6GzwjfEH5vpvlM6cy2CIjgR2yIuB9pGZkX+X0UKSoyqi7qUbRTdHF09yzWrORZ+2e9jvGPqYy5O9tqtnJ2Z6xqbFJsY+ybuIC4qriBeIf4RfGXEnQTJAntieTE2MQ9ieNzAudsmjOc5JpUlnRjruXcorkX5unOy553PFk1WZB8OIWYEpeyP+WDIEJQLxhP5aduTR0T8oSbhU9FvqKNolGxt7hKPJLmnVaV9jjdO31D+miGT0Z1xjMJT1IreZEZkrkj801WRNberM/ZcdktOZSclJyjUg1plrQr1zC3KLdPZisrkw3keeZtyhuTh8r35CP5c/PbFWyFTNGjtFKuUA4WTC+oK3hbGFt4uEi9SFrUM99m/ur5IwuCFny9kLBQuLCz2Lh4WfHgIr9FuxYji1MXdy4xXVK6ZHhp8NJ9y2jLspb9UOJYUlXyannc8o5Sg9KlpUMrglc0lamUycturvRauWMVYZVkVe9ql9VbVn8qF5VfrHCsqK74sEa45uJXTl/VfPV5bdra3kq3yu3rSOuk626s91m/r0q9akHV0IbwDa0b8Y3lG19tSt50oXpq9Y7NtM3KzQM1YTXtW8y2rNvyoTaj9nqdf13LVv2tq7e+2Sba1r/dd3vzDoMdFTve75TsvLUreFdrvUV99W7S7oLdjxpiG7q/5n7duEd3T8Wej3ulewf2Re/ranRvbNyvv7+yCW1SNo0eSDpw5ZuAb9qb7Zp3tXBaKg7CQeXBJ9+mfHvjUOihzsPcw83fmX+39QjrSHkr0jq/dawto22gPaG97+iMo50dXh1Hvrf/fu8x42N1xzWPV56gnSg98fnkgpPjp2Snnp1OPz3Umdx590z8mWtdUV29Z0PPnj8XdO5Mt1/3yfPe549d8Lxw9CL3Ytslt0utPa49R35w/eFIr1tv62X3y+1XPK509E3rO9Hv03/6asDVc9f41y5dn3m978bsG7duJt0cuCW69fh29u0XdwruTNxdeo94r/y+2v3qB/oP6n+0/rFlwG3g+GDAYM/DWQ/vDgmHnv6U/9OH4dJHzEfVI0YjjY+dHx8bDRq98mTOk+GnsqcTz8p+Vv9563Or59/94vtLz1j82PAL+YvPv655qfNy76uprzrHI8cfvM55PfGm/K3O233vuO+638e9H5ko/ED+UPPR+mPHp9BP9z7nfP78L/eE8/stRzjPAAAAIGNIUk0AAHomAACAhAAA+gAAAIDoAAB1MAAA6mAAADqYAAAXcJy6UTwAAAAJcEhZcwAADsQAAA7EAZUrDhsAABHdSURBVHic7d1bjG5nXcfx38BubXqEthRPqWjT0nhAvUBKrcSiiFqvlHpIlRo8JDZGLdG0JBoW4cIaLzQxxkNESkUTwUtETaMkIsGg5UYqAm1Qi7tpxY2lB6pGXi/WtO5uZs+8M7Oedfp/PsmkyZ7d53l69f92Hd53Z7PZBACo5XlTHwAAGJ8AAICCBAAAFCQAAKAgAQAABQkAAChIAABAQQIAAAoSAABQkAAAgIIEAAAUJAAAoCABAAAFCQAAKEgAAEBBAgAAChIAAFCQAACAggQAABQkAACgIAEAAAUJAAAoSAAAQEECAAAKEgAAUJAAAICCBAAAFCQAAKAgAQAABQkAAChIAABAQQIAAAoSAABQkAAAgIIEAAAUJAAAoCABAAAFCQAAKEgAAEBBAgAAChIAAFCQAACAggQAABQkAACgIAEAAAUJAAAoSAAAQEECAAAKEgAAUJAAAICCBAAAFCQAAKAgAQAABQkAAChIAABAQQIAAAoSAABQkAAAgIIEAAAUJAAAoCABAAAFCQAAKEgAAEBBJ1osurOz02LZo3pRkpcmuTbJNUkuSfLCJBcmuWD3B4B6ntz9eSLJfyZ5LMnHd38+muTRyU52hs1mM/iaTQJgYl+d5NVJbkzyqiSXT3scABbqVJL3J/mr3Z/7kww/iSey06IqJrgC8PVJbk3yA0m+dOzNASjhkSR/nOQPkvz9mBs3mdULDoALk/xYkjckedkYGwLAro8meUeS30l/+6ApAdC7KMltSX4hyWUtNwKAAzye5O1J7krycKtNqgfAeUnuSPLGJBe32AAAjuipJL+R5K3pHywcVOUAeHWS30z/JD8AzNXJJG9Kcs+Qi1YMgMuT/HaS7xtqQQAYwZ+nf07t5BCLVQuAb0r/tOVLhlgMAEb26fRvqL33uAu1mNVz/CTA56W/fPKBGP4ALNflSd6T5Jczw8/dmdsVgHPTv1bxg8OdBgAmd2+S703/qYOHtvZbABck+ZMk3znsaQBgFj6U5Kb0twYOZc0BcFmSP0vy8sEPAwDz8Y9JXpNDPhy41gA4P/2lkesHPwgAzM/96b+r5tS2/8IaHwI8J/1lf8MfgCq+Jv2bAZN+G+2UAbCT/uMTv2vCMwDAFF6R/lX35091gCkD4PYkt0y4PwBM6aYkvzTV5lM9A/DyJH+T/rU/AKjq8+nffrt3v7+0locAX5Dkw0m+cvCNAWB5Hk3yDdnn2wTX8hDgr8fwB4BnXJH+mwRHNfYVgBuS/HX6BwABgP/3PUn+dK9fLP0WwIkk9yV52eAbAsDyPZjka5M8feYvln4L4Gdj+APA2VyV5OfH2mysKwDnJ/lk+vscAMDeTqX/JtzHT//DJV8B+IkY/gBwkEuT3DbGRmNcATgnyQNJrhx8IwBYn0fTvy331DN/sNQrAD8Uwx8AtnVFRvik3DEC4EdH2AMA1uT1rTdofQvgyvQP/039rYMAsCSbJFenfzVwkbcAfmSEPQBgbXaS/HDLDVoP55sbrw8Aa/W6lou3vAVwWfonGV0BAIDD2yT5kiSPLO0WwLc1Xh8A1mwnybe2WrzlgL6x4doAUEGzWdoyAG5ouDYAVPDNrRZu9QzA85M8keS8wRcHgDr+O8n5m83mf4deuNUVgJfE8AeA4zo3yVe0WLhVAFzbaF0AqOalLRZtFQBXNVoXAKq5usWirQLg0kbrAkA1l7RYtFUAXNhoXQCo5qIWi7YKgCaHBYCCLm6x6IkWi2ZZVwDunPoAAEzirqkPsKUm/1PdKgDOabRuC78y9QEAmMRSAqDJTPVZ/QBQkAAAgIIEAAAUJAAAoCABAAAFCQAAKEgAAEBBAgAAChIAAFCQAACAggQAABQkAACgIAEAAAUJAAAoSAAAQEECAAAKEgAAUJAAAICCBAAAFCQAAKAgAQAABQkAAChIAABAQQIAAAoSAABQkAAAgIIEAAAUJAAAoCABAAAFCQAAKEgAAEBBAgAAChIAAFCQAACAggQAABQkAACgIAEAAAUJAAAoSAAAQEECAAAKEgAAUJAAAICCBAAAFCQAAKAgAQAABQkAAChIAABAQQIAAAoSAABQkAAAgIIEAAAUJAAAoCABAAAFCQAAKEgAAEBBAgAAChIAAFCQAACAggQAABQkAACgIAEAAAUJAAAoSADAMlw89QGAdREAsAyvTXLX1IcA1kMAwHLcEREADEQAwLKIAGAQAgCWRwQAxyYAYJlEAHAsAgCWSwQARyYAYNlEAHAkAgCWTwQAhyYAYB1EAHAoAgDWQwQAWxMAsC4iANiKAID1EQHAgQQArJMIAPYlAGC9RABwVgIA1k0EAHsSALB+IgD4AgIAahABwHMIAKhDBADPEgBQiwgAkggAqEgEAAIAihIBUNyJRut+f6N1geHcsfvPOyc9BTAJVwCgNlcCoCgBAIgAKEgAAIkIgHIEAPAMEQCFCADgdCIAihAAwJlEABQgAIC9iABYOQEAnI0IgBUTAMB+RACslAAADiICYIUEALANEQArIwCAbYkAWBEBAByGCICVEADAYYkAWAEBAByFCICFEwDAUYkAWDABAByHCICFEgDAcYkAWCABAAxBBMDCCABgKCIAFkQAAEMSAbAQAgAYmgiABRAAQAsiAGZOAACtiACYMQEAtCQCYKYEANCaCIAZEgDAGEQAzIwAAMYiAmBGBAAwJhEAMyEAgLGJAJgBAQBMQQTAxAQAMBURABMSAMCURABMRAAAUxMBMAEBAMyBCICRCQBgLkQAjEgAAHMiAmAkAgCYGxEAIxAAwByJAGhMAABzJQKgIQEAzJkIgEZONFr3lUm+vNHaUNF1Ux9gQnckeTpJN/E5YFVaBcDtSW5utDZQz5uTnJfkzqkPAmvhFgCwFG4HwIAEALAkIgAGIgCApREBMAABACyRCIBjEgDAUokAOAYBACyZCIAjEgDA0okAOAIBAKyBCIBDEgDAWogAOAQBAKyJCIAtCQBgbUQAbEEAAGskAuAAAgBYKxEA+xAAwJqJADgLAQCsnQiAPQgAoAIRAGcQAEAVIgBOIwCASkQA7BIAQDUiACIAgJpEAOUJAKCqz019AJiSAAAq6pK8ZepDwJQEAFBNF8MfBABQShfDH5IIAKCOLoY/PEsAABV0MfzhOQQAsHZdDH/4AgIAWLMuhj/sSQAAa9XF8IezEgDAGnUx/GFfAgBYmy6GPxxIAABr0sXwh60IAGAtuhj+sDUBAKxBF8MfDkUAAEvXxfCHQxMAwJJ1MfzhSAQAsFRdDH84MgEALFEXwx+ORQAAS9PF8IdjEwDAknQx/GEQAgBYii6GPwzmRKN1fy3JuxutDRVdl+SNUx9iQm+J4Q+DahUAH2y0LlBPF8MfBucWADBnXQx/aEIAAHPVxfCHZgQAMEddDH9oSgAAc9PF8IfmBAAwJ10MfxiFAADmoovhD6MRAMAcdDH8YVQCAJhaF8MfRicAgCl1MfxhEgIAmEoXwx8mIwCAKXQx/GFSAgAYWxfDHyYnAIAxdTH8YRYEADCWLoY/zIYAAMbQxfCHWREAQGtdDH+YHQEAtNTF8IdZEgBAK10Mf5gtAQC00MXwh1kTAMDQuhj+MHsCABhSF8MfFkEAAEPpYvjDYggAYAhdDH9YFAEAHFcXwx8WRwAAx9HF8IdFEgDAUXUx/GGxBABwFF0Mf1g0AQAcVhfDHxZPAACH0cXwh1UQAMC2uhj+sBoCANhGF8MfVkUAAAfpYvjD6ggAYD9dDH9YJQEAnE0Xwx9WSwAAe+li+MOqCQDgTF0Mf1g9AQCcrovhDyUIAOAZXQx/KEMAAInhD+UIAKCL4Q/lCACorYvhDyW1CoB3Jdks5Aeq6mL4Q1muAEBNXQx/KE0AQD1dDH8oTwBALV0MfyACACrpYvgDuwQA1NDF8AdOIwBg/boY/sAZBACsWxfDH9iDAID16mL4A2chAGCduhj+wD4EAKxPF8MfOIAAgHXpYvgDWxAAsB5dDH9gSwIA1qGL4Q8cggCA5eti+AOHJABg2boY/sARCABYri6GP3BEAgCWqYvhDxyDAIDl6WL4A8ckAGBZuhj+wAAEACxHF8MfGMiJqQ8AbOUvkrx76kMA6+EKACzDZ6c+ALAuAgAAChIAAFCQAACAggQAABQkAACgIAEAAAUJAAAoSAAAQEECAAAKEgAAUJAAAICCBAAAFCQAAKAgAQAABQkAAChIAABAQQIAAAoSAABQkAAAgIIEAAAUJAAAoCABAAAFCQAAKEgAAEBBAgAAChIAAFCQAACAggQAABQkAACgIAEAAAUJAAAoSAAAQEECAAAKEgAAUJAAAICCBAAAFCQAAKAgAQAABQkAAChIAABAQQIAAAoSAABQkAAAgIIEAAAUJAAAoCABAAAFCQAAKEgAAEBBAgAAChIAAFCQAACAggQAABQkAACgIAEAAAUJAAAoSAAAQEECAAAKEgAAUJAAAICCBAAAFCQAAKAgAQAABZ1otO6m0botfPvUBwCAfTSZqa0C4KlG67Zw79QHAIB9PNFi0Va3AB5vtC4AVNNkpgoAAJi3z7ZYtFUANDksABS0qCsAn2q0LgBU81CLRVsFwD81WhcAqmkyU3c2m+HfLtjZ2bkoyWNJdgZfHADq2CS5eLPZDP4mQMuHAE82WhsAqngoC3sNMEnua7g2AFTw4VYLtwyA9zVcGwAq+MtWC7cMgGaHBoAims3SVg8BJv0DgCeTfPHgGwDA+j2c5MuSbFrM6pZXADZJ3ttwfQBYs/ek4Zfrtf464Hsarw8Aa/WOlou3vAWQ9LcBHkjyVYNvAgDr9ckkV2X3CsDSbgEk/cHf2XgPAFibu9Pw8n/S/gpA0j/A8GCSLxp8IwBYn6fT/9//sx+ot8QrAEnyb+lLBgA42NsywqfpjnEFIEmuTPKJJOcOvhkArMf/JLk6yb+c/odLvQKQJP8azwIAwEHenjOGfytjXQFIkhen/0rDFwy+IQAs32eSXJvk0TN/seQrAEnySJJfHHE/AFiSN2WP4d/KmFcAkj44PpDkusE3BYDl+rv0s/Hze/1y6VcAkv4/7CeTfG7kfQFgrp5K8oacZfi3MnYAJMk/JPmZCfYFgDn66SQfGXvTsW8BnO7uJLcOvjkALMcfJbnloL/UZFZPGAAXJHl/km8c/AAAMH/3JXlV+lsA+1rDMwCnezLJa5N8bMIzAMAUHkhyU7YY/q1MGQBJ8u9JXpP+g4IAoIKT6WffI1MeYuoASJKHknx3koenPggANPZwku9I8s8Tn2MWAZAk9ye5Pm4HALBeD6a/53//1AdJ5hMASV9D16f/oCAAWJMPJXll+nv/szCnAEiSU+kvjdw98TkAYCi/n+TG9M+9zcaUrwEe5HVJfi/JJUMsBgAjezzJTyX5w+MutLbPAdjGNUnuSfKKoRYEgBF8MP2H3X1iiMXW9jkA2/h4+nsmt2bEb0gCgCM6leTnktyQgYZ/K3O/AnC6S5O8NcmPJzm3xQYAcET/leR3k7w5yWeGXrziLYC9vDjJ7em/POGClhsBwAGeTPK2JL+a5FOtNhEAz3V5ktuSvD7JVWNsCAC7Hkj/jNpvJfl0680EwFm2S/+cwC1Jbk7yojE3B6CMR5O8K/1T/X875sYCYIutk3xd+vctb0zyLemfHQCAw/qP9N9a+77dn48kGX5obkEAHM0VSa5N/0rhNek/V+CFSS5M/wyB5wgAanpy9+eJ9A/uPZb+7bOP7f7M5u2zxQQAADBvc/8cAACgAQEAAAUJAAAoSAAAQEECAAAKEgAAUJAAAICCBAAAFCQAAKAgAQAABQkAAChIAABAQQIAAAoSAABQkAAAgIIEAAAUJAAAoCABAAAFCQAAKEgAAEBBAgAAChIAAFCQAACAggQAABQkAACgIAEAAAUJAAAoSAAAQEECAAAKEgAAUJAAAICCBAAAFCQAAKAgAQAABQkAAChIAABAQQIAAAoSAABQkAAAgIIEAAAUJAAAoCABAAAFCQAAKEgAAEBBAgAAChIAAFCQAACAggQAABQkAACgIAEAAAUJAAAoSAAAQEECAAAKEgAAUJAAAICCBAAAFCQAAKAgAQAABQkAAChIAABAQQIAAAoSAABQkAAAgIL+DwhmsaIYtEeyAAAAAElFTkSuQmCC;shadow=0;strokeColor=default;fontColor=default;" parent="1" vertex="1">
          <mxGeometry x="574.25" y="617.89" width="12" height="12" as="geometry" />
        </mxCell>
        <mxCell id="Kzo5I-FJj0xecOTcukf--5" value="" style="shape=image;verticalLabelPosition=bottom;labelBackgroundColor=default;verticalAlign=top;aspect=fixed;imageAspect=0;image=data:image/png,iVBORw0KGgoAAAANSUhEUgAAAgAAAAIACAYAAAD0eNT6AAAABGdBTUEAALGPC/xhBQAACklpQ0NQc1JHQiBJRUM2MTk2Ni0yLjEAAEiJnVN3WJP3Fj7f92UPVkLY8LGXbIEAIiOsCMgQWaIQkgBhhBASQMWFiApWFBURnEhVxILVCkidiOKgKLhnQYqIWotVXDjuH9yntX167+3t+9f7vOec5/zOec8PgBESJpHmomoAOVKFPDrYH49PSMTJvYACFUjgBCAQ5svCZwXFAADwA3l4fnSwP/wBr28AAgBw1S4kEsfh/4O6UCZXACCRAOAiEucLAZBSAMguVMgUAMgYALBTs2QKAJQAAGx5fEIiAKoNAOz0ST4FANipk9wXANiiHKkIAI0BAJkoRyQCQLsAYFWBUiwCwMIAoKxAIi4EwK4BgFm2MkcCgL0FAHaOWJAPQGAAgJlCLMwAIDgCAEMeE80DIEwDoDDSv+CpX3CFuEgBAMDLlc2XS9IzFLiV0Bp38vDg4iHiwmyxQmEXKRBmCeQinJebIxNI5wNMzgwAABr50cH+OD+Q5+bk4eZm52zv9MWi/mvwbyI+IfHf/ryMAgQAEE7P79pf5eXWA3DHAbB1v2upWwDaVgBo3/ldM9sJoFoK0Hr5i3k4/EAenqFQyDwdHAoLC+0lYqG9MOOLPv8z4W/gi372/EAe/tt68ABxmkCZrcCjg/1xYW52rlKO58sEQjFu9+cj/seFf/2OKdHiNLFcLBWK8ViJuFAiTcd5uVKRRCHJleIS6X8y8R+W/QmTdw0ArIZPwE62B7XLbMB+7gECiw5Y0nYAQH7zLYwaC5EAEGc0Mnn3AACTv/mPQCsBAM2XpOMAALzoGFyolBdMxggAAESggSqwQQcMwRSswA6cwR28wBcCYQZEQAwkwDwQQgbkgBwKoRiWQRlUwDrYBLWwAxqgEZrhELTBMTgN5+ASXIHrcBcGYBiewhi8hgkEQcgIE2EhOogRYo7YIs4IF5mOBCJhSDSSgKQg6YgUUSLFyHKkAqlCapFdSCPyLXIUOY1cQPqQ28ggMor8irxHMZSBslED1AJ1QLmoHxqKxqBz0XQ0D12AlqJr0Rq0Hj2AtqKn0UvodXQAfYqOY4DRMQ5mjNlhXIyHRWCJWBomxxZj5Vg1Vo81Yx1YN3YVG8CeYe8IJAKLgBPsCF6EEMJsgpCQR1hMWEOoJewjtBK6CFcJg4Qxwicik6hPtCV6EvnEeGI6sZBYRqwm7iEeIZ4lXicOE1+TSCQOyZLkTgohJZAySQtJa0jbSC2kU6Q+0hBpnEwm65Btyd7kCLKArCCXkbeQD5BPkvvJw+S3FDrFiOJMCaIkUqSUEko1ZT/lBKWfMkKZoKpRzame1AiqiDqfWkltoHZQL1OHqRM0dZolzZsWQ8ukLaPV0JppZ2n3aC/pdLoJ3YMeRZfQl9Jr6Afp5+mD9HcMDYYNg8dIYigZaxl7GacYtxkvmUymBdOXmchUMNcyG5lnmA+Yb1VYKvYqfBWRyhKVOpVWlX6V56pUVXNVP9V5qgtUq1UPq15WfaZGVbNQ46kJ1Bar1akdVbupNq7OUndSj1DPUV+jvl/9gvpjDbKGhUaghkijVGO3xhmNIRbGMmXxWELWclYD6yxrmE1iW7L57Ex2Bfsbdi97TFNDc6pmrGaRZp3mcc0BDsax4PA52ZxKziHODc57LQMtPy2x1mqtZq1+rTfaetq+2mLtcu0W7eva73VwnUCdLJ31Om0693UJuja6UbqFutt1z+o+02PreekJ9cr1Dund0Uf1bfSj9Rfq79bv0R83MDQINpAZbDE4Y/DMkGPoa5hpuNHwhOGoEctoupHEaKPRSaMnuCbuh2fjNXgXPmasbxxirDTeZdxrPGFiaTLbpMSkxeS+Kc2Ua5pmutG003TMzMgs3KzYrMnsjjnVnGueYb7ZvNv8jYWlRZzFSos2i8eW2pZ8ywWWTZb3rJhWPlZ5VvVW16xJ1lzrLOtt1ldsUBtXmwybOpvLtqitm63Edptt3xTiFI8p0in1U27aMez87ArsmuwG7Tn2YfYl9m32zx3MHBId1jt0O3xydHXMdmxwvOuk4TTDqcSpw+lXZxtnoXOd8zUXpkuQyxKXdpcXU22niqdun3rLleUa7rrStdP1o5u7m9yt2W3U3cw9xX2r+00umxvJXcM970H08PdY4nHM452nm6fC85DnL152Xlle+70eT7OcJp7WMG3I28Rb4L3Le2A6Pj1l+s7pAz7GPgKfep+Hvqa+It89viN+1n6Zfgf8nvs7+sv9j/i/4XnyFvFOBWABwQHlAb2BGoGzA2sDHwSZBKUHNQWNBbsGLww+FUIMCQ1ZH3KTb8AX8hv5YzPcZyya0RXKCJ0VWhv6MMwmTB7WEY6GzwjfEH5vpvlM6cy2CIjgR2yIuB9pGZkX+X0UKSoyqi7qUbRTdHF09yzWrORZ+2e9jvGPqYy5O9tqtnJ2Z6xqbFJsY+ybuIC4qriBeIf4RfGXEnQTJAntieTE2MQ9ieNzAudsmjOc5JpUlnRjruXcorkX5unOy553PFk1WZB8OIWYEpeyP+WDIEJQLxhP5aduTR0T8oSbhU9FvqKNolGxt7hKPJLmnVaV9jjdO31D+miGT0Z1xjMJT1IreZEZkrkj801WRNberM/ZcdktOZSclJyjUg1plrQr1zC3KLdPZisrkw3keeZtyhuTh8r35CP5c/PbFWyFTNGjtFKuUA4WTC+oK3hbGFt4uEi9SFrUM99m/ur5IwuCFny9kLBQuLCz2Lh4WfHgIr9FuxYji1MXdy4xXVK6ZHhp8NJ9y2jLspb9UOJYUlXyannc8o5Sg9KlpUMrglc0lamUycturvRauWMVYZVkVe9ql9VbVn8qF5VfrHCsqK74sEa45uJXTl/VfPV5bdra3kq3yu3rSOuk626s91m/r0q9akHV0IbwDa0b8Y3lG19tSt50oXpq9Y7NtM3KzQM1YTXtW8y2rNvyoTaj9nqdf13LVv2tq7e+2Sba1r/dd3vzDoMdFTve75TsvLUreFdrvUV99W7S7oLdjxpiG7q/5n7duEd3T8Wej3ulewf2Re/ranRvbNyvv7+yCW1SNo0eSDpw5ZuAb9qb7Zp3tXBaKg7CQeXBJ9+mfHvjUOihzsPcw83fmX+39QjrSHkr0jq/dawto22gPaG97+iMo50dXh1Hvrf/fu8x42N1xzWPV56gnSg98fnkgpPjp2Snnp1OPz3Umdx590z8mWtdUV29Z0PPnj8XdO5Mt1/3yfPe549d8Lxw9CL3Ytslt0utPa49R35w/eFIr1tv62X3y+1XPK509E3rO9Hv03/6asDVc9f41y5dn3m978bsG7duJt0cuCW69fh29u0XdwruTNxdeo94r/y+2v3qB/oP6n+0/rFlwG3g+GDAYM/DWQ/vDgmHnv6U/9OH4dJHzEfVI0YjjY+dHx8bDRq98mTOk+GnsqcTz8p+Vv9563Or59/94vtLz1j82PAL+YvPv655qfNy76uprzrHI8cfvM55PfGm/K3O233vuO+638e9H5ko/ED+UPPR+mPHp9BP9z7nfP78L/eE8/stRzjPAAAAIGNIUk0AAHomAACAhAAA+gAAAIDoAAB1MAAA6mAAADqYAAAXcJy6UTwAAAAJcEhZcwAADsQAAA7EAZUrDhsAABHdSURBVHic7d1bjG5nXcfx38BubXqEthRPqWjT0nhAvUBKrcSiiFqvlHpIlRo8JDZGLdG0JBoW4cIaLzQxxkNESkUTwUtETaMkIsGg5UYqAm1Qi7tpxY2lB6pGXi/WtO5uZs+8M7Oedfp/PsmkyZ7d53l69f92Hd53Z7PZBACo5XlTHwAAGJ8AAICCBAAAFCQAAKAgAQAABQkAAChIAABAQQIAAAoSAABQkAAAgIIEAAAUJAAAoCABAAAFCQAAKEgAAEBBAgAAChIAAFCQAACAggQAABQkAACgIAEAAAUJAAAoSAAAQEECAAAKEgAAUJAAAICCBAAAFCQAAKAgAQAABQkAAChIAABAQQIAAAoSAABQkAAAgIIEAAAUJAAAoCABAAAFCQAAKEgAAEBBAgAAChIAAFCQAACAggQAABQkAACgIAEAAAUJAAAoSAAAQEECAAAKEgAAUJAAAICCBAAAFCQAAKAgAQAABQkAAChIAABAQQIAAAoSAABQkAAAgIIEAAAUJAAAoCABAAAFCQAAKEgAAEBBJ1osurOz02LZo3pRkpcmuTbJNUkuSfLCJBcmuWD3B4B6ntz9eSLJfyZ5LMnHd38+muTRyU52hs1mM/iaTQJgYl+d5NVJbkzyqiSXT3scABbqVJL3J/mr3Z/7kww/iSey06IqJrgC8PVJbk3yA0m+dOzNASjhkSR/nOQPkvz9mBs3mdULDoALk/xYkjckedkYGwLAro8meUeS30l/+6ApAdC7KMltSX4hyWUtNwKAAzye5O1J7krycKtNqgfAeUnuSPLGJBe32AAAjuipJL+R5K3pHywcVOUAeHWS30z/JD8AzNXJJG9Kcs+Qi1YMgMuT/HaS7xtqQQAYwZ+nf07t5BCLVQuAb0r/tOVLhlgMAEb26fRvqL33uAu1mNVz/CTA56W/fPKBGP4ALNflSd6T5Jczw8/dmdsVgHPTv1bxg8OdBgAmd2+S703/qYOHtvZbABck+ZMk3znsaQBgFj6U5Kb0twYOZc0BcFmSP0vy8sEPAwDz8Y9JXpNDPhy41gA4P/2lkesHPwgAzM/96b+r5tS2/8IaHwI8J/1lf8MfgCq+Jv2bAZN+G+2UAbCT/uMTv2vCMwDAFF6R/lX35091gCkD4PYkt0y4PwBM6aYkvzTV5lM9A/DyJH+T/rU/AKjq8+nffrt3v7+0locAX5Dkw0m+cvCNAWB5Hk3yDdnn2wTX8hDgr8fwB4BnXJH+mwRHNfYVgBuS/HX6BwABgP/3PUn+dK9fLP0WwIkk9yV52eAbAsDyPZjka5M8feYvln4L4Gdj+APA2VyV5OfH2mysKwDnJ/lk+vscAMDeTqX/JtzHT//DJV8B+IkY/gBwkEuT3DbGRmNcATgnyQNJrhx8IwBYn0fTvy331DN/sNQrAD8Uwx8AtnVFRvik3DEC4EdH2AMA1uT1rTdofQvgyvQP/039rYMAsCSbJFenfzVwkbcAfmSEPQBgbXaS/HDLDVoP55sbrw8Aa/W6lou3vAVwWfonGV0BAIDD2yT5kiSPLO0WwLc1Xh8A1mwnybe2WrzlgL6x4doAUEGzWdoyAG5ouDYAVPDNrRZu9QzA85M8keS8wRcHgDr+O8n5m83mf4deuNUVgJfE8AeA4zo3yVe0WLhVAFzbaF0AqOalLRZtFQBXNVoXAKq5usWirQLg0kbrAkA1l7RYtFUAXNhoXQCo5qIWi7YKgCaHBYCCLm6x6IkWi2ZZVwDunPoAAEzirqkPsKUm/1PdKgDOabRuC78y9QEAmMRSAqDJTPVZ/QBQkAAAgIIEAAAUJAAAoCABAAAFCQAAKEgAAEBBAgAAChIAAFCQAACAggQAABQkAACgIAEAAAUJAAAoSAAAQEECAAAKEgAAUJAAAICCBAAAFCQAAKAgAQAABQkAAChIAABAQQIAAAoSAABQkAAAgIIEAAAUJAAAoCABAAAFCQAAKEgAAEBBAgAAChIAAFCQAACAggQAABQkAACgIAEAAAUJAAAoSAAAQEECAAAKEgAAUJAAAICCBAAAFCQAAKAgAQAABQkAAChIAABAQQIAAAoSAABQkAAAgIIEAAAUJAAAoCABAAAFCQAAKEgAAEBBAgAAChIAAFCQAACAggQAABQkAACgIAEAAAUJAAAoSADAMlw89QGAdREAsAyvTXLX1IcA1kMAwHLcEREADEQAwLKIAGAQAgCWRwQAxyYAYJlEAHAsAgCWSwQARyYAYNlEAHAkAgCWTwQAhyYAYB1EAHAoAgDWQwQAWxMAsC4iANiKAID1EQHAgQQArJMIAPYlAGC9RABwVgIA1k0EAHsSALB+IgD4AgIAahABwHMIAKhDBADPEgBQiwgAkggAqEgEAAIAihIBUNyJRut+f6N1geHcsfvPOyc9BTAJVwCgNlcCoCgBAIgAKEgAAIkIgHIEAPAMEQCFCADgdCIAihAAwJlEABQgAIC9iABYOQEAnI0IgBUTAMB+RACslAAADiICYIUEALANEQArIwCAbYkAWBEBAByGCICVEADAYYkAWAEBAByFCICFEwDAUYkAWDABAByHCICFEgDAcYkAWCABAAxBBMDCCABgKCIAFkQAAEMSAbAQAgAYmgiABRAAQAsiAGZOAACtiACYMQEAtCQCYKYEANCaCIAZEgDAGEQAzIwAAMYiAmBGBAAwJhEAMyEAgLGJAJgBAQBMQQTAxAQAMBURABMSAMCURABMRAAAUxMBMAEBAMyBCICRCQBgLkQAjEgAAHMiAmAkAgCYGxEAIxAAwByJAGhMAABzJQKgIQEAzJkIgEZONFr3lUm+vNHaUNF1Ux9gQnckeTpJN/E5YFVaBcDtSW5utDZQz5uTnJfkzqkPAmvhFgCwFG4HwIAEALAkIgAGIgCApREBMAABACyRCIBjEgDAUokAOAYBACyZCIAjEgDA0okAOAIBAKyBCIBDEgDAWogAOAQBAKyJCIAtCQBgbUQAbEEAAGskAuAAAgBYKxEA+xAAwJqJADgLAQCsnQiAPQgAoAIRAGcQAEAVIgBOIwCASkQA7BIAQDUiACIAgJpEAOUJAKCqz019AJiSAAAq6pK8ZepDwJQEAFBNF8MfBABQShfDH5IIAKCOLoY/PEsAABV0MfzhOQQAsHZdDH/4AgIAWLMuhj/sSQAAa9XF8IezEgDAGnUx/GFfAgBYmy6GPxxIAABr0sXwh60IAGAtuhj+sDUBAKxBF8MfDkUAAEvXxfCHQxMAwJJ1MfzhSAQAsFRdDH84MgEALFEXwx+ORQAAS9PF8IdjEwDAknQx/GEQAgBYii6GPwzmRKN1fy3JuxutDRVdl+SNUx9iQm+J4Q+DahUAH2y0LlBPF8MfBucWADBnXQx/aEIAAHPVxfCHZgQAMEddDH9oSgAAc9PF8IfmBAAwJ10MfxiFAADmoovhD6MRAMAcdDH8YVQCAJhaF8MfRicAgCl1MfxhEgIAmEoXwx8mIwCAKXQx/GFSAgAYWxfDHyYnAIAxdTH8YRYEADCWLoY/zIYAAMbQxfCHWREAQGtdDH+YHQEAtNTF8IdZEgBAK10Mf5gtAQC00MXwh1kTAMDQuhj+MHsCABhSF8MfFkEAAEPpYvjDYggAYAhdDH9YFAEAHFcXwx8WRwAAx9HF8IdFEgDAUXUx/GGxBABwFF0Mf1g0AQAcVhfDHxZPAACH0cXwh1UQAMC2uhj+sBoCANhGF8MfVkUAAAfpYvjD6ggAYD9dDH9YJQEAnE0Xwx9WSwAAe+li+MOqCQDgTF0Mf1g9AQCcrovhDyUIAOAZXQx/KEMAAInhD+UIAKCL4Q/lCACorYvhDyW1CoB3Jdks5Aeq6mL4Q1muAEBNXQx/KE0AQD1dDH8oTwBALV0MfyACACrpYvgDuwQA1NDF8AdOIwBg/boY/sAZBACsWxfDH9iDAID16mL4A2chAGCduhj+wD4EAKxPF8MfOIAAgHXpYvgDWxAAsB5dDH9gSwIA1qGL4Q8cggCA5eti+AOHJABg2boY/sARCABYri6GP3BEAgCWqYvhDxyDAIDl6WL4A8ckAGBZuhj+wAAEACxHF8MfGMiJqQ8AbOUvkrx76kMA6+EKACzDZ6c+ALAuAgAAChIAAFCQAACAggQAABQkAACgIAEAAAUJAAAoSAAAQEECAAAKEgAAUJAAAICCBAAAFCQAAKAgAQAABQkAAChIAABAQQIAAAoSAABQkAAAgIIEAAAUJAAAoCABAAAFCQAAKEgAAEBBAgAAChIAAFCQAACAggQAABQkAACgIAEAAAUJAAAoSAAAQEECAAAKEgAAUJAAAICCBAAAFCQAAKAgAQAABQkAAChIAABAQQIAAAoSAABQkAAAgIIEAAAUJAAAoCABAAAFCQAAKEgAAEBBAgAAChIAAFCQAACAggQAABQkAACgIAEAAAUJAAAoSAAAQEECAAAKEgAAUJAAAICCBAAAFCQAAKAgAQAABZ1otO6m0botfPvUBwCAfTSZqa0C4KlG67Zw79QHAIB9PNFi0Va3AB5vtC4AVNNkpgoAAJi3z7ZYtFUANDksABS0qCsAn2q0LgBU81CLRVsFwD81WhcAqmkyU3c2m+HfLtjZ2bkoyWNJdgZfHADq2CS5eLPZDP4mQMuHAE82WhsAqngoC3sNMEnua7g2AFTw4VYLtwyA9zVcGwAq+MtWC7cMgGaHBoAims3SVg8BJv0DgCeTfPHgGwDA+j2c5MuSbFrM6pZXADZJ3ttwfQBYs/ek4Zfrtf464Hsarw8Aa/WOlou3vAWQ9LcBHkjyVYNvAgDr9ckkV2X3CsDSbgEk/cHf2XgPAFibu9Pw8n/S/gpA0j/A8GCSLxp8IwBYn6fT/9//sx+ot8QrAEnyb+lLBgA42NsywqfpjnEFIEmuTPKJJOcOvhkArMf/JLk6yb+c/odLvQKQJP8azwIAwEHenjOGfytjXQFIkhen/0rDFwy+IQAs32eSXJvk0TN/seQrAEnySJJfHHE/AFiSN2WP4d/KmFcAkj44PpDkusE3BYDl+rv0s/Hze/1y6VcAkv4/7CeTfG7kfQFgrp5K8oacZfi3MnYAJMk/JPmZCfYFgDn66SQfGXvTsW8BnO7uJLcOvjkALMcfJbnloL/UZFZPGAAXJHl/km8c/AAAMH/3JXlV+lsA+1rDMwCnezLJa5N8bMIzAMAUHkhyU7YY/q1MGQBJ8u9JXpP+g4IAoIKT6WffI1MeYuoASJKHknx3koenPggANPZwku9I8s8Tn2MWAZAk9ye5Pm4HALBeD6a/53//1AdJ5hMASV9D16f/oCAAWJMPJXll+nv/szCnAEiSU+kvjdw98TkAYCi/n+TG9M+9zcaUrwEe5HVJfi/JJUMsBgAjezzJTyX5w+MutLbPAdjGNUnuSfKKoRYEgBF8MP2H3X1iiMXW9jkA2/h4+nsmt2bEb0gCgCM6leTnktyQgYZ/K3O/AnC6S5O8NcmPJzm3xQYAcET/leR3k7w5yWeGXrziLYC9vDjJ7em/POGClhsBwAGeTPK2JL+a5FOtNhEAz3V5ktuSvD7JVWNsCAC7Hkj/jNpvJfl0680EwFm2S/+cwC1Jbk7yojE3B6CMR5O8K/1T/X875sYCYIutk3xd+vctb0zyLemfHQCAw/qP9N9a+77dn48kGX5obkEAHM0VSa5N/0rhNek/V+CFSS5M/wyB5wgAanpy9+eJ9A/uPZb+7bOP7f7M5u2zxQQAADBvc/8cAACgAQEAAAUJAAAoSAAAQEECAAAKEgAAUJAAAICCBAAAFCQAAKAgAQAABQkAAChIAABAQQIAAAoSAABQkAAAgIIEAAAUJAAAoCABAAAFCQAAKEgAAEBBAgAAChIAAFCQAACAggQAABQkAACgIAEAAAUJAAAoSAAAQEECAAAKEgAAUJAAAICCBAAAFCQAAKAgAQAABQkAAChIAABAQQIAAAoSAABQkAAAgIIEAAAUJAAAoCABAAAFCQAAKEgAAEBBAgAAChIAAFCQAACAggQAABQkAACgIAEAAAUJAAAoSAAAQEECAAAKEgAAUJAAAICCBAAAFCQAAKAgAQAABQkAAChIAABAQQIAAAoSAABQkAAAgIL+DwhmsaIYtEeyAAAAAElFTkSuQmCC;shadow=0;strokeColor=default;fontColor=default;" parent="1" vertex="1">
          <mxGeometry x="627.75" y="575.89" width="12" height="12" as="geometry" />
        </mxCell>
      </root>
    </mxGraphModel>
  </diagram>
</mxfile>
